<?xml version="1.0" standalone="no"?>
<!DOCTYPE svg PUBLIC "-//W3C//DTD SVG 20010904//EN"
 "http://www.w3.org/TR/2001/REC-SVG-20010904/DTD/svg10.dtd">
<svg version="1.0" xmlns="http://www.w3.org/2000/svg"
 width="256.000000pt" height="256.000000pt" viewBox="0 0 256.000000 256.000000"
 preserveAspectRatio="xMidYMid meet">
<metadata>
Created by potrace 1.16, written by Peter Selinger 2001-2019
</metadata>
<g transform="translate(0.000000,256.000000) scale(0.100000,-0.100000)"
fill="#000000" stroke="none">
<path d="M705 531 c-12 -5 -27 -16 -34 -25 -7 -9 -17 -14 -21 -11 -5 3 -12 0
-16 -6 -5 -8 -3 -9 6 -4 10 6 12 4 7 -9 -4 -10 -7 -21 -7 -24 0 -4 -5 0 -10 8
-16 23 -2 -37 19 -80 33 -71 21 -70 631 -70 610 0 598 -1 631 70 19 40 35 103
21 82 -7 -11 -10 -10 -16 3 -9 24 -8 27 6 19 7 -5 8 -3 4 5 -5 7 -11 10 -14 7
-3 -4 -16 4 -30 16 l-24 23 -566 2 c-312 1 -576 -2 -587 -6z"/>
</g>
</svg>
