<svg xmlns="http://www.w3.org/2000/svg" xmlns:xlink="http://www.w3.org/1999/xlink" version="1.1" id="Layer_1" x="0px" y="0px" viewBox="-22 -37.1178 1182 1994.2355" enable-background="new -22 -37.1178 1182 1994.2355" xml:space="preserve">
<g>
	<path fill="#676767" stroke="#676767" stroke-width="0.2" d="M563.54,0h18.9c93.48,1.38,186.47,17.45,275.76,44.89   c28.25,8.67,56.25,18.25,83.71,29.17c0.21,59.57-0.04,119.16,0.13,178.74c-0.2,28.51,0.2,57.03-0.21,85.54   c-1.21-1.03-2.44-2.01-3.69-2.95c0.43-35.46,0.06-70.93,0.18-106.39c-0.09-50.91,0.18-101.83-0.13-152.74   c-40.97-15.49-82.57-29.43-125.01-40.36C717.32,10.69,617.56-0.85,518.51,5.32c-58.79,3.57-117.2,13.4-173.93,29.25   c-40.04,11-79.07,25.38-117.19,41.78l-0.66,0.32c-0.32,91.48,0.01,182.99-0.16,274.48l0.7-0.3c87.56-33.7,179.92-55.48,273.58-62.1   c2.15,0.06,4.3,0.23,6.46,0.42c-3.1,2.96-7.42,3.34-11.48,3.52c-83.92,6.67-166.93,24.9-246,53.79   c-5.58,1.69-11.13,3.59-16.32,6.26c-3.05,1-6.15,1.82-9.28,2.52c-0.17-2.75-0.29-5.5-0.3-8.26c0.02-32.41,0.04-64.82-0.01-97.24   c0.16-58.55-0.1-117.12,0.13-175.67c57.57-25.69,118-45.02,179.8-57.45C456.39,5.98,509.96,0.67,563.54,0z"/>
	<path fill="#FFFFFF" stroke="#FFFFFF" stroke-width="0.2" d="M518.51,5.32c99.05-6.17,198.81,5.37,294.67,30.58   c42.44,10.93,84.04,24.87,125.01,40.36c0.31,50.91,0.04,101.83,0.13,152.74c-0.12,35.46,0.25,70.93-0.18,106.39   c-15.91-12.2-35.99-16.2-55.09-20.51c-21.01-4.42-42.55-7.75-64.06-5.88c-5.73,0.39-11.33,1.72-16.86,3.16   c-6.77-1.32-13.43-3.19-20.26-4.15c-12.99-14.01-29.75-23.76-46.7-32.18C702.23,259.6,665.9,249.39,629,249.6   c-20.54,0-41.02,2.68-60.99,7.42c-7.63,1.63-15.27,3.43-22.45,6.52c-13.22,5.49-24.83,14.11-35.69,23.3   c-2.39,2.4-5.98,1.6-9.02,1.91c-93.66,6.62-186.02,28.4-273.58,62.1c0.21-91.49-0.01-183,0.12-274.5   c38.12-16.4,77.15-30.78,117.19-41.78C401.31,18.72,459.72,8.89,518.51,5.32 M551.62,47.09c-0.06,24.53-0.1,49.05,0.02,73.58   c-26.2,0-52.4-0.04-78.6,0.02c0.1,17.1,0.05,34.19,0.02,51.29c26.19,0.11,52.38-0.07,78.57,0.09c-0.12,24.45-0.02,48.9-0.05,73.35   c20.92,0.03,41.83,0.04,62.75,0c-0.02-24.45,0.05-48.91-0.04-73.36c26.19-0.13,52.38,0.03,78.58-0.08   c0.01-17.09-0.13-34.19,0.07-51.28c-26.22-0.07-52.43-0.04-78.65-0.02c0.08-24.53,0.04-49.06,0.02-73.59   C593.41,47.16,572.52,47.16,551.62,47.09z"/>
	<path fill="#D40000" stroke="#D40000" stroke-width="0.2" d="M551.62,47.09c20.9,0.07,41.79,0.07,62.69,0   c0.02,24.53,0.06,49.06-0.02,73.59c26.22-0.02,52.43-0.05,78.65,0.02c-0.2,17.09-0.06,34.19-0.07,51.28   c-26.2,0.11-52.39-0.05-78.58,0.08c0.09,24.45,0.02,48.91,0.04,73.36c-20.92,0.04-41.83,0.03-62.75,0   c0.03-24.45-0.07-48.9,0.05-73.35c-26.19-0.16-52.38,0.02-78.57-0.09c0.03-17.1,0.08-34.19-0.02-51.29   c26.2-0.06,52.4-0.02,78.6-0.02C551.52,96.14,551.56,71.62,551.62,47.09z"/>
	<path stroke="#000000" stroke-width="0.2" d="M226.73,76.67l0.66-0.32c-0.13,91.5,0.09,183.01-0.12,274.5l-0.7,0.3   C226.74,259.66,226.41,168.15,226.73,76.67z"/>
	<path stroke="#000000" stroke-width="0.2" d="M164.5,302.48c17.52-19.93,37.33-37.97,59.42-52.72c0.05,32.42,0.03,64.83,0.01,97.24   c0.01,2.76,0.13,5.51,0.3,8.26c3.13-0.7,6.23-1.52,9.28-2.52c-3.64,3.21-8.18,5.03-12.33,7.44c-13.55,8.15-27.72,15.28-40.81,24.19   c-22.96,16.01-38.15,40.24-51.92,64.06c-6.36,10.74-10.17,22.73-13.28,34.76c-6.16,24.57-9.37,49.75-11.87,74.91   c-3.25,33.95-4.76,68.04-5.62,102.12c-1.57-1.27-3.13-2.53-4.78-3.6899c0-1.53-0.05-3.05-0.14-4.5601   c-8.01-64.36-12.55-129.81-3.98-194.37c4.47-31.54,12.34-63.32,29.01-90.79C131.86,344.33,147.09,322.51,164.5,302.48z"/>
	<path fill="#0B0B28" stroke="#0B0B28" stroke-width="0.2" d="M568.01,257.02c19.97-4.74,40.45-7.42,60.99-7.42   c36.9-0.21,73.23,10,106.17,26.23c16.95,8.42,33.71,18.17,46.7,32.18c1.49,1.59,2.95,3.23,4.64,4.63c0.73,1.94,1.57,3.83,2.46,5.71   c2.21-1.23,4.38-2.53,6.6201-3.72c2.11-0.96,4.3-1.81,6.54-2.47c5.53-1.44,11.13-2.77,16.86-3.16c21.51-1.87,43.05,1.46,64.06,5.88   c19.1,4.31,39.18,8.31,55.09,20.51c1.25,0.94,2.48,1.92,3.69,2.95c9.96,9.01,16.89,20.93,21.29,33.54   c6.06,16.62,9.34,34.08,15.21,50.76c4.78,14.06,11.29,27.72,20.85,39.19c6.87,8.8,15.47,16,24.39,22.63   c20.41,16.04,38.1199,36.03,49.3,59.63c6.0699,13.47,10.1801,28.08,9.98,42.95c-1.24,22.14-3.4399,44.25-6.72,66.19   c-5.89,38.3-14.9,76.67-32.4,111.47c-4.28,8.33-9.13,16.38-14.7999,23.84c-2.42,3.07-5.1,5.93-7.9,8.66   c-1.17-45.36-4.7-90.92-14.9901-135.21c-5.12-21.29-11.69-42.44-22.21-61.73c-11.06-21.17-23.8-42.23-42.46-57.59   c-10.19-8.45-21.75-15.01-32.76-22.29c-16.58-10.36-32.38-21.97-47.14-34.79c-11.11-9.62-21.98-19.58-34.0699-27.98   c-6.91-4.91-14.13-9.34-21.4301-13.62c-6.71-4.05-13.73-8.01-18.8-14.13c-5.28-6.34-7.86-14.37-9.82-22.25   c-3.35-14.09-4.71-28.54-6.43-42.89c-29.5,26.7-60.88,51.46-94.75,72.41c-32.84,20.53-67.87,37.55-104.27,50.8   c-42.19,15.39-86.12,25.72-130.5,32.34c-16.87,3.22-34.19,2.32-51.15,0.34c-24.37-3.04-48.5-7.74-72.86-10.81   c-17.39-1.99-35.2-3.34-52.5,0.04c-10.44,2.01-20.5,6.5-28.32,13.79c-25.4,22.46-43.64,51.59-60.05,80.93   c-16.76,30.34-31.21,61.88-46.3,93.07c-3.54,7.26-7.28,14.42-11.09,21.54c-4.8,8.31-9.34,16.93-15.92,24.02   c-2.67,2.79-5.78,5.53-9.68,6.33c-2.43,0.55-4.73-0.76-6.97-1.47c5.7-28.98,10.26-58.27,11.12-87.83   c0.86-34.08,2.37-68.17,5.62-102.12c2.5-25.16,5.71-50.34,11.87-74.91c3.11-12.03,6.92-24.02,13.28-34.76   c13.77-23.82,28.96-48.05,51.92-64.06c13.09-8.91,27.26-16.04,40.81-24.19c4.15-2.41,8.69-4.23,12.33-7.44   c5.19-2.67,10.74-4.57,16.32-6.26c2.82-0.24,5.64-0.51,8.4-1.2c14.11-3.56,28.73-4.23,43.21-4.79c8.19-0.56,16.37,0.14,24.56,0.38   c28.7,0.39,57.52,4.02,86.15,0.33c16.34-1.94,32-7.87,46.4-15.68c15.95-8.85,30.21-20.4,43.69-32.6c-2.14-0.12-4.28-0.23-6.41-0.23   c4.06-0.18,8.38-0.56,11.48-3.52c-2.16-0.19-4.31-0.36-6.46-0.42c3.04-0.31,6.63,0.49,9.02-1.91c10.86-9.19,22.47-17.81,35.69-23.3   C552.74,260.45,560.38,258.65,568.01,257.02 M589.99,286.99c-17.68,4.27-34.98,10.1-51.64,17.39   c-37.65,16.13-70.82,40.53-106.35,60.56c-8.34,4.35-17.57,6.59-26.76,8.29c-17.29,2.81-34.81,3.87-52.3,4.05   c-16.95,1.31-33.97,0.17-50.93,1.41c-18.32,0.62-36.91,1.56-54.59,6.77c-15.55,5.36-29.71,14.18-42.39,24.57   c-25.82,22.05-44.42,51.44-57.46,82.55c-9.38,21.76-16.01,44.59-21.3,67.66c-4.17,19.43-7.71,39.09-9,58.95   c0.94-1.37,1.87-2.76,2.68-4.21c9.25-18.45,19.22-36.55,29.73-54.32c19.63-32.72,41.31-64.55,68.08-91.9   c7.97-7.47,16.28-14.66,25.62-20.4c15.44-10.07,33.04-16.67,51.18-19.8c15.96-2.97,32.23-3.33,48.39-4.45   c13.04-0.04,26.02-1.3,39.06-1.23c10.96-0.81,21.96-0.74,32.92-1.68c8.96-0.52,18.09-0.15,26.86-2.39   c11.8-3.65,22.67-9.64,33.4-15.65c31.96-18.67,62-40.34,92-61.96c9.18-6.87,20.47-9.78,31.4-12.54   c31.65-7.03,64.12-8.85,96.39-10.63c11.72-0.14,23.44-0.51,35.14-1.17c-4.08-4-8.95-7.05-13.58-10.36   c-13.09-8.74-26.56-17.22-41.39-22.68c-9.61-3.63-19.96-4.18-30.12-4.4C626.48,279.78,607.94,282.23,589.99,286.99 M796.32,330.32   c-3.74,1.89-6.76,5.14-7.79,9.26c-4,13.43-6.65,27.42-6.42,41.47c0.48,12.29,3.49,25.38,12.56,34.28   c20.74,19.58,45.57,33.94,68.89,50.13c11.26,7.95,21.74,16.91,32.48,25.53c22.39,17.53,49.05,29.35,69.25,49.72   c8.56,8.18,16.14,17.32,23.11,26.87c8.25,11.48,13.38,24.77,18.04,38.01c13.59,40.23,20.08,82.41,25.55,124.3799   c1.3101,9.01,1.5601,18.17,3.3,27.1201c0.9199-1.71,1.8099-3.42,2.51-5.22c3.8999-11.16,8.08-22.22,11.48-33.54   c10.98-36.11,20.03-73.38,20-111.33c0.15-19.21-2.89-38.98-12.39-55.93c-9.5601-18.2-23.72-33.4-38.21-47.76   c-17.67-16.33-35.28-33.17-48.72-53.28c-8.97-13.05-13.4901-28.44-17.46-43.59c-4.84-17.07-8.43-34.87-17.66-50.26   c-7.95-13.99-21.75-23.95-36.72-29.32c-18.14-6.8-37.83-8.73-57.07-7.56C825.74,320.57,809.95,322.78,796.32,330.32 M693,342.03   c-21.02,0.99-42.04,2.49-62.92,5.17c-16.34,2.28-32.93,4.92-48.02,11.88c-21.28,9.91-39.64,24.74-58.46,38.52   c-17.57,13.12-35.11,26.68-55.14,35.91c-15.48,7.09-32.58,9.65-49.45,10.51c-18.35,0.45-36.7,0.01-55.01-0.97   c-11.35,0.07-22.67-1.31-34.03-0.85c-11.56,0.6-23.19,0.91-34.58,3.22c-18.82,3.22-36.06,12.4-51.23,23.74   c-12.03,9.18-23.14,19.54-33.17,30.86c-17.71,19.37-33.12,40.74-47.02,62.97c-1.99,2.89-3.87,5.88-5.09,9.19   c2.91-2.62,4.93-5.98,7.11-9.19c18.3-25.24,39.24-49.21,65.46-66.48c19.56-13.22,42.8-21.63,66.57-21.5   c10.79,0.17,21.32,2.72,31.77,5.19c10.23,2.48,20.7,3.76,31.18,4.59c44.27,2.39,88.76-4.09,131.17-16.7   c16.67-5.47,32.91-12.18,49.16-18.8c17.49-7.37,34.85-15.18,51.4-24.51c14.95-8.41,29.9-17.73,41.05-30.99   c4.49-4.9,9.58-9.23,15.04-12.99c18.05-12.59,38.07-21.91,58.04-30.96c6.41-2.94,13.14-5.18,19.35-8.54   C715.11,340.6,704.07,342.09,693,342.03z"/>
	<path stroke="#000000" stroke-width="0.2" d="M942.04,252.8c32.27,11.42,64.07,28.2,86.0001,55.19   c18.13,22.06,27.37,49.77,33.76,77.21c6.3899,28.23,11.5499,56.87,12.51,85.86c1.58,24.34,0.1899,48.74-1.4401,73.03   c-11.1801-23.6-28.89-43.59-49.3-59.63c-8.92-6.63-17.52-13.83-24.39-22.63c-9.56-11.47-16.07-25.13-20.85-39.19   c-5.87-16.68-9.15-34.14-15.21-50.76c-4.4-12.61-11.33-24.53-21.29-33.54C942.24,309.83,941.84,281.31,942.04,252.8z"/>
	<path stroke="#000000" stroke-width="0.2" d="M589.99,286.99c17.95-4.76,36.49-7.21,55.04-7.57c10.16,0.22,20.5099,0.77,30.12,4.4   c14.83,5.46,28.3,13.94,41.39,22.68c4.63,3.31,9.5,6.36,13.58,10.36c-11.7,0.66-23.42,1.03-35.14,1.17   c-32.27,1.78-64.74,3.6-96.39,10.63c-10.9301,2.76-22.22,5.67-31.4,12.54c-30,21.62-60.04,43.29-92,61.96   c-10.73,6.01-21.6,12-33.4,15.65c-8.77,2.24-17.9,1.87-26.86,2.39c-10.96,0.94-21.96,0.87-32.92,1.68   c-13.04-0.07-26.02,1.19-39.06,1.23c-16.16,1.12-32.43,1.48-48.39,4.45c-18.14,3.13-35.74,9.73-51.18,19.8   c-9.34,5.74-17.65,12.93-25.62,20.4c-26.77,27.35-48.45,59.18-68.08,91.9c-10.51,17.77-20.48,35.8701-29.73,54.32   c-0.81,1.45-1.74,2.84-2.68,4.21c1.29-19.86,4.83-39.52,9-58.95c5.29-23.07,11.92-45.9,21.3-67.66   c13.04-31.11,31.64-60.5,57.46-82.55c12.68-10.39,26.84-19.21,42.39-24.57c17.68-5.21,36.27-6.15,54.59-6.77   c16.96-1.24,33.98-0.1,50.93-1.41c17.49-0.18,35.01-1.24,52.3-4.05c9.19-1.7,18.42-3.94,26.76-8.29   c35.53-20.03,68.7-44.43,106.35-60.56C555.01,297.09,572.31,291.26,589.99,286.99z"/>
	<path stroke="#000000" stroke-width="0.2" d="M249.83,346.48c79.07-28.89,162.08-47.12,246-53.79c2.13,0,4.27,0.11,6.41,0.23   c-13.48,12.2-27.74,23.75-43.69,32.6c-14.4,7.81-30.06,13.74-46.4,15.68c-28.63,3.69-57.45,0.06-86.15-0.33   c-8.19-0.24-16.37-0.94-24.56-0.38c-14.48,0.56-29.1,1.23-43.21,4.79C255.47,345.97,252.65,346.24,249.83,346.48z"/>
	<path fill="#6A6A69" stroke="#6A6A69" stroke-width="0.2" d="M781.87,308.01c6.83,0.96,13.49,2.83,20.26,4.15   c-2.24,0.66-4.43,1.51-6.54,2.47c-3.01-0.78-6.05-1.37-9.08-1.99C784.82,311.24,783.36,309.6,781.87,308.01z"/>
	<path fill="#010102" stroke="#010102" stroke-width="0.2" d="M788.97,318.35c-0.89-1.88-1.73-3.77-2.46-5.71   c3.03,0.62,6.07,1.21,9.08,1.99C793.35,315.82,791.18,317.12,788.97,318.35z"/>
	<path stroke="#000000" stroke-width="0.2" d="M796.32,330.32c13.63-7.54,29.42-9.75,44.73-11.02c19.24-1.17,38.93,0.76,57.07,7.56   c14.97,5.37,28.77,15.33,36.72,29.32c9.23,15.39,12.8199,33.19,17.66,50.26c3.97,15.15,8.49,30.54,17.46,43.59   c13.44,20.11,31.05,36.95,48.72,53.28c14.4901,14.36,28.65,29.56,38.21,47.76c9.5,16.95,12.54,36.72,12.39,55.93   c0.03,37.95-9.02,75.22-20,111.33c-3.4,11.32-7.5801,22.38-11.48,33.54c-0.7001,1.8-1.5901,3.51-2.51,5.22   c-1.74-8.95-1.99-18.11-3.3-27.1201c-5.47-41.97-11.96-84.15-25.55-124.3799c-4.66-13.2401-9.79-26.53-18.04-38.01   c-6.97-9.55-14.55-18.69-23.11-26.87c-20.2-20.37-46.86-32.19-69.25-49.72c-10.74-8.62-21.22-17.58-32.48-25.53   c-23.32-16.19-48.15-30.55-68.89-50.13c-9.07-8.9-12.08-21.99-12.56-34.28c-0.23-14.05,2.42-28.04,6.42-41.47   C789.56,335.46,792.58,332.21,796.32,330.32 M819.4,358.4c-2.35,0.88-1.62,3.68-1.44,5.59c5.73,32.19,25.95,61.26,53.8,78.3   c16.66,10.08,31.38,23.15,44.1,37.85c11.3,11.68,21.56,25.18,36.48,32.5c6.53,2.93,12.91,6.18,18.97,10.01   c7.97,4.77,14.73,11.29,20.8,18.27c7.54,9.34,13.86,19.58,20.37,29.65c20.72,30.44,28.84,67.48,31.87,103.67   c3.28-6.86,4.36-14.47,6.0701-21.81c5.83-30.6,4.09-63.6-9.9701-91.82c-6.76-14.35-17.9999-25.89-29.29-36.77   c-9.33-8.34-18.5-16.84-27.87-25.13c-7.57-7.44-15.99-14.02-22.7-22.3c-9.9-10.24-16.54-23.26-20.06-36.99   c-5.01-16.73-7.27-34.37-14.67-50.31c-6.65-14.88-20.17-25.49-34.47-32.55C868.92,345.46,841.41,346.88,819.4,358.4z"/>
	<path stroke="#000000" stroke-width="0.2" d="M693,342.03c11.07,0.06,22.11-1.43,33.18-0.73c-6.21,3.36-12.94,5.6-19.35,8.54   c-19.97,9.05-39.99,18.37-58.04,30.96c-5.46,3.76-10.55,8.09-15.04,12.99c-11.15,13.26-26.1,22.58-41.05,30.99   c-16.55,9.33-33.91,17.14-51.4,24.51c-16.25,6.62-32.49,13.33-49.16,18.8c-42.41,12.61-86.9,19.09-131.17,16.7   c-10.48-0.83-20.95-2.11-31.18-4.59c-10.45-2.47-20.98-5.02-31.77-5.19c-23.77-0.13-47.01,8.28-66.57,21.5   c-26.22,17.27-47.16,41.24-65.46,66.48c-2.18,3.21-4.2,6.57-7.11,9.19c1.22-3.31,3.1-6.3,5.09-9.19   c13.9-22.23,29.31-43.6,47.02-62.97c10.03-11.32,21.14-21.68,33.17-30.86c15.17-11.34,32.41-20.52,51.23-23.74   c11.39-2.31,23.02-2.62,34.58-3.22c11.36-0.46,22.68,0.92,34.03,0.85c18.31,0.98,36.66,1.42,55.01,0.97   c16.87-0.86,33.97-3.42,49.45-10.51c20.03-9.23,37.57-22.79,55.14-35.91c18.82-13.78,37.1801-28.61,58.46-38.52   c15.09-6.96,31.68-9.6,48.02-11.88C650.96,344.52,671.98,343.02,693,342.03z"/>
	<path fill="#0B0B28" stroke="#0B0B28" stroke-width="0.2" d="M819.4,358.4c22.0099-11.52,49.52-12.94,71.99-1.84   c14.3,7.06,27.82,17.67,34.47,32.55c7.4,15.94,9.66,33.58,14.67,50.31c3.52,13.73,10.16,26.75,20.06,36.99   c6.71,8.28,15.1299,14.86,22.7,22.3c9.37,8.29,18.54,16.79,27.87,25.13c11.29,10.8799,22.53,22.42,29.29,36.77   c14.0601,28.22,15.8,61.22,9.9701,91.82c-1.7101,7.34-2.79,14.95-6.0701,21.81c-3.03-36.19-11.15-73.23-31.87-103.67   c-6.51-10.07-12.83-20.31-20.37-29.65c-6.07-6.98-12.83-13.5-20.8-18.27c-6.06-3.83-12.44-7.08-18.97-10.01   c-14.92-7.32-25.1801-20.82-36.48-32.5c-12.72-14.7-27.44-27.77-44.1-37.85c-27.85-17.04-48.07-46.11-53.8-78.3   C817.78,362.08,817.05,359.28,819.4,358.4z"/>
	<path fill="#D89A72" stroke="#D89A72" stroke-width="0.2" d="M676.17,437.13c33.87-20.95,65.25-45.71,94.75-72.41   c1.72,14.35,3.08,28.8,6.43,42.89c1.96,7.88,4.54,15.91,9.82,22.25c5.07,6.12,12.09,10.08,18.8,14.13   c7.3,4.28,14.52,8.71,21.4301,13.62c12.09,8.4,22.96,18.36,34.0699,27.98c14.76,12.82,30.5601,24.43,47.14,34.79   c11.01,7.28,22.57,13.84,32.76,22.29c18.66,15.36,31.4,36.42,42.46,57.59c10.52,19.29,17.09,40.44,22.21,61.73   c10.29,44.29,13.82,89.85,14.9901,135.21c2.8-2.73,5.48-5.59,7.9-8.66c2.37,8.62,1.7799,17.62,1.98,26.46   c0.37,25.1,0.0499,50.2,0.45,75.3c0,4.49-0.1,8.98-0.42,13.47c-2.08,19.89-8.3799,39.04-15.59,57.59   c-7.5099,19.12-16.64,37.54-26.23,55.69c-13.82,27.08-30.12,52.93-48.87,76.8701c-0.8-0.17-1.59-0.3301-2.37-0.4801   c16.97-33.85,35.79-66.7599,53.04-100.47c3.68-8.16,7.7-16.22,10.19-24.85c5.29-16.95,6.73-34.73,8.71-52.28   c5.88-50.01,7.11-100.64,2.07-150.77c-4.2-41.72-12.95-83.1-27.38-122.51c-9.06-24.34-19.94-48.14-34.06-69.98   c-13.72-21.43-32.29-39.45-53.14-53.9c-12.72-9.25-26.61-16.7-39.87-25.12c-21.89-12.97-43.7-26.35-63.11-42.89   c-5.09-4.57-10.69-8.68-14.78-14.22c-4.55-6.09-7.95-12.93-11.15-19.79c-2.95-6.25-4.75-12.99-8.06-19.07   c-19.83,25.25-43.22,47.64-69.05,66.7c-61.59,46.18-138.2,72.35-215.3,71.83c-24.46,0.47-48.8-2.58-72.94-6.23   c-41.01-6.31-83.86-6.31-123.69,6.46c-32.33,10.51-62.01,30.16-82.67,57.34c-7.17,9.53-14.02,19.44-18.89,30.37   c-0.14,0.26-0.43,0.79-0.57,1.06c-7.59,14.61-12.36,30.51-15.51,46.63C148.57,736.6,137.55,801.86,125.96,867   c-3.74,19.37-1.48,39.29,2.55,58.42c7.28,34.82,20.98,67.89,36.21,99.9c20.84,42.25,47.49,81.4,76.61,118.3501   c4.2,5.4099,8.75,10.5699,12.44,16.37c-0.53,0.1-1.58,0.2899-2.1,0.38c-48.76-44.3101-89.62-97.7001-117.79-157.36   c-14.49-30.87-26.16-63.3-32.04-96.97c-3.15,2.95-6.33,5.93-10.03,8.2c-0.43-5.11,2.83-9.34,4.67-13.84   c13.81-31.54,21.61-65.36,26.64-99.31c3.74-25.89,5.75-52.01,6.93-78.14c-0.1-8.46,1.63-16.96,0.17-25.37   c15.09-31.19,29.54-62.73,46.3-93.07c16.41-29.34,34.65-58.47,60.05-80.93c7.82-7.29,17.88-11.78,28.32-13.79   c17.3-3.38,35.11-2.03,52.5-0.04c24.36,3.07,48.49,7.77,72.86,10.81c16.96,1.98,34.28,2.88,51.15-0.34   c44.38-6.62,88.31-16.95,130.5-32.34C608.3,474.68,643.33,457.66,676.17,437.13z"/>
	<path fill="#DEAA87" stroke="#DEAA87" stroke-width="0.2" d="M691.29,464.29c25.83-19.06,49.22-41.45,69.05-66.7   c3.31,6.08,5.11,12.82,8.06,19.07c3.2,6.86,6.6,13.7,11.15,19.79c4.09,5.54,9.69,9.65,14.78,14.22   c19.41,16.54,41.22,29.92,63.11,42.89c13.26,8.42,27.15,15.87,39.87,25.12c20.85,14.45,39.42,32.47,53.14,53.9   c14.12,21.84,25,45.64,34.06,69.98c14.43,39.41,23.18,80.79,27.38,122.51c5.04,50.13,3.81,100.76-2.07,150.77   c-1.98,17.55-3.42,35.33-8.71,52.28c-2.49,8.63-6.51,16.69-10.19,24.85c-17.25,33.7101-36.07,66.62-53.04,100.47   c0.78,0.15,1.57,0.3101,2.37,0.4801c-47.58,61.23-110.34,110.63-181.2,142.1599c-24.5,11.25-50.16,19.87-76.23,26.64   c-2.09,0.13-2.29,2.4401-2.83,4c-0.76-0.85-1.5-1.7-2.33-2.4299c-3.56,0.0399-6.97,1.26-10.42,2   c-44.96,9.8999-91.38,13.02-137.27,9.63c-24.18-1.63-48.12-5.66-71.8-10.76c-0.71,0.58-1.42,1.1699-2.13,1.77   c-0.16-0.5901-0.47-1.79-0.62-2.39c-69.53-16.5901-135.14-49.1901-190.4-94.51c-4.02-3.88-9.81-5.12-13.35-9.61   c0.52-0.0901,1.57-0.28,2.1-0.38c-3.69-5.8-8.24-10.9601-12.44-16.37c-29.12-36.9501-55.77-76.1001-76.61-118.3501   c-15.23-32.0099-28.93-65.08-36.21-99.9c-4.03-19.13-6.29-39.05-2.55-58.42c11.59-65.14,22.61-130.4,35.76-195.25   c3.15-16.12,7.92-32.02,15.51-46.63c9.95-1.97,19.97-3.52,30.03-4.76c-0.82,6.94-4.32,13.13-6.09,19.83   c-3.27,11.46-6.5,23.1-7.11,35.05c-3.24-2.89-6.06-6.19-9.21-9.18c2.78,4.6,6.21,8.75,9.23,13.2c-2.87,8.36-2.12,17.32-1.56,25.98   c1.11,15.44,5.63,30.87,14.69,43.56c2.13,2.9,4.49,5.62,6.77,8.4c6.21,8.03,15.37,12.85,24.04,17.75   c7.74,3.9,15.42,8.47,24.11,9.87c3.61,0.65,7.29,0.65,10.95,0.74c2.11,0.33,4.23,0.67,6.33,1.17c9.86,3.77,20.41,5.2,30.78,6.85   c-1.49,0.21-2.97,0.46-4.43,0.74c3.7,1.01,7.53,1.35,11.33,1.73c4.3,0.17,7.1,4.33,11.44,4.45c6.49,0.58,13.02,0.77,19.53,1.06   c16.36-0.59,32.77-0.41,49.06-2.34c12.39-1.49,24.95-1.06,37.31-2.8799c9.7-1.52,19.36-5.48,26.21-12.7   c7.37-8.05,10.16-19.54,8.91-30.23c-1.8-13.7599-2.29-27.65-3.65-41.46c-1.27-14.33-3.75-28.58-8.06-42.32   c-0.25-1.03-0.47-2.07-0.68-3.09c2.02-0.52,4.04-1.06,6.09-1.49c7.29,0.09,15.04,0.39,21.69-3.11c3.24-1.67,6.15-5.03,5.55-8.9   c-0.66-5.42-4.95-9.44-9.21-12.37c-8.41-5.72-18.52-7.81-28.09-10.73c-23.73-7.09-47.66-13.51-71.78-19.13   c-24.49-5.36-49.29-10.03-74.41-10.82c-18.14-0.64-36.34,1.02-54.06,4.96c-25.3,5.36-49.79,14.01-75.14,19.11   c4.87-10.93,11.72-20.84,18.89-30.37c20.66-27.18,50.34-46.83,82.67-57.34c39.83-12.77,82.68-12.77,123.69-6.46   c24.14,3.65,48.48,6.7,72.94,6.23C553.09,536.64,629.7,510.47,691.29,464.29 M803.54,561.36c-20.1,5.59-39.17,14.26-57.98,23.16   c-18.68,8.94-37.18,18.24-55.83,27.24c-13.41,6.58-27.42,12.42-39.13,21.87c-4.49,3.81-9.21,8.04-10.99,13.85   c-0.98,2.68,0.16,5.89,2.73,7.22c4.1299,2.2,9.03,2.22,13.59,1.76c11.46-1.28,22.39-5.25,33.03-9.53c0.67,0.73,1.34,1.46,2.02,2.21   c-3.24,4.46-7.34,8.48-9.05,13.86c-1.83,1.97-2.92,4.47-4.1,6.86c-4.13,8.78-8.06,17.86-9.4,27.55   c-3.74,14.92-5.11,30.3-6.42,45.58c-0.97,8.17-2.23,16.62,0.25,24.66c2.13,8.9,8.4,16.4,16.24,20.95   c11.91,6.91,26.09,6.9901,39.45,7.7401c8.23,0.8199,16.6,0.21,24.76,1.83c10.69,1.39,21.5,1.92,32.29,1.82   c13.93,0.02,28.17,0.46,41.71-3.41c-0.09-1.09-0.15-2.16-0.21-3.22c5.31-0.52,10.88-0.76,15.68-3.38c-0.61-0.07-1.82-0.2-2.43-0.27   c5.67-1.62,11.94-1.9901,17.12-4.86l-0.46,0.64c2.79-0.68,5.57-1.41,8.31-2.32c3.7,0.85,7.4301-0.93,11.15-0.02   c4.1,1.04,8-1.16,11.71-2.61c9.8-4.55,19.56-9.32,28.41-15.56c4.89-3.67,10.27-7.31,13.1-12.92   c14.45-17.98,19.91-41.46,21.11-64.07c-0.03-6.79,1.36-13.74-0.63-20.38c0.54-0.84,1.05-1.69,1.52-2.56   c0.1-0.09,0.29-0.27,0.39-0.35c-1.55-2.3-1.49-5.12-1.66-7.76c-1.29-21.66-5.41-43.04-10.61-64.07c0.47-0.03,1.42-0.1,1.9-0.13   c7.77,3.09,15.44,6.43,22.88,10.27c3.38,1.7,6.62,3.71,10.2,5.03c-9.27-6.63-19.12-12.45-28.87-18.35   c-22.92-13.31-47.01-25.59-73.2-30.85C842.75,554.87,822.54,556.07,803.54,561.36 M542.86,886.94c-6.1,2.32-12.49,5.04-16.54,10.42   c1.72,0.45,3.5,0.86,5.29,0.52c14.58-2.34,29.39-4.78,44.19-3.12c6.91,0.87,13.85,0.32,20.74-0.45c-1.09-3.26-4.49-4.39-7.37-5.55   C574.6,882.77,557.83,881.92,542.86,886.94 M627.95,916.81c2.01,10.42,6.59,20.86,4.5,31.64c-0.58,3.58-3.35,6.55-7.01,7.03   c-9.78,1.53-18.63-5.42-28.4-4.31c-6.72,1.13-12.2,5.51-17.82,9.05c-5.84,3.85-12.89,7.19-20.04,5.48   c-10.05-2.82-16.81-11.8-26.58-15.19c-4.7599-1.61-10.0099-0.76-14.3199,1.69c-5.6201,2.64-10.68,7.31-17.16,7.49   c-5.24-0.91-8.64-6.56-8.29-11.67c-0.34-8.48,4.53-15.71,7.38-23.34c-4.72,4.05-7.65,9.72-10.22,15.29   c-2.99,6.8701-3.04,15.36,1.37,21.65c2.64,4.01,7.74,6.17,12.45,5.08c7.26-1.55,13.34-6.1,20.16-8.78   c3.42-1.62,6.89,0.62,9.84,2.23c9.35,5.62,18.94,12.06,30.14,12.91c8.16,0.67,15.39-3.93,21.85-8.31   c3.81-2.55,7.29-5.86,11.78-7.18c3.33-0.53,6.48,1.21,9.57,2.22c5.63,2.22,11.7,3.98,17.8199,3.16   c6.76-0.76,12.8101-6.3,13.83-13.08c1.06-6.65-0.77-13.34-3.28-19.45C633.49,925.63,631.32,920.82,627.95,916.81 M492.4,1042.42   c-14.61,2.25-28.72,7.1499-43.47,8.5499c-1.88,0.11-3.52,1.0601-5.12,1.9401c11.35,17.23,22.36,35.6,39.26,48.01   c18.71,11.22,39.96,17.6799,61.36,21.4199c38.61,6.88,78.91-0.15,114.2-16.75c10.66-4.98,19.53-12.95,27.62-21.34   c10.75-11.54,20.3-24.17,28.75-37.48c-5.86,0.64-11.59,2.1699-17.47,2.64c-9.16,1.02-18.46,0.47-27.45-1.52   c-11.96-2.39-23.78-6.76-36.15-5.8c-14.35,1.13-28.22,5.26-42.14,8.6801c-7.36,1.4299-14.75,4.77-22.34,3.59   c-11.56-3.45-22.81-7.86-34.32-11.49C521.29,1038.45,506.46,1039.89,492.4,1042.42z"/>
	<path stroke="#000000" stroke-width="0.2" d="M803.54,561.36c19-5.29,39.21-6.49,58.58-2.52c26.19,5.2599,50.28,17.54,73.2,30.85   c9.75,5.9,19.6,11.72,28.87,18.35c-3.58-1.32-6.82-3.33-10.2-5.03c-7.44-3.84-15.11-7.18-22.88-10.27   c-15.33-5.84-31.32-10.45-47.74-11.65c-21.5-2.14-43.25,1.54-63.55,8.61c-10.96,3.64-21.62,8.16-32.14,12.9   c-5.66,2.55-11.38,4.98-16.85,7.92c-17.2,7.8-34.16,16.15-51.42,23.83c-10.11,4.29-20.21,8.62-30.45,12.58   c-10.64,4.28-21.57,8.25-33.03,9.53c-4.56,0.46-9.46,0.44-13.59-1.76c-2.57-1.33-3.71-4.54-2.73-7.22   c1.78-5.81,6.5-10.04,10.99-13.85c11.71-9.45,25.72-15.29,39.13-21.87c18.65-9,37.15-18.3,55.83-27.24   C764.37,575.62,783.44,566.95,803.54,561.36z"/>
	<path stroke="#000000" stroke-width="0.2" d="M252.94,604.95c17.72-3.94,35.92-5.6,54.06-4.96c25.12,0.79,49.92,5.46,74.41,10.82   c24.12,5.62,48.05,12.04,71.78,19.13c9.57,2.92,19.68,5.01,28.09,10.73c4.26,2.93,8.55,6.95,9.21,12.37   c0.6,3.87-2.31,7.23-5.55,8.9c-6.65,3.5-14.4,3.2-21.69,3.11c-9.4-0.93-18.64-2.98-27.74-5.45c-17.18-4.5099-34.32-9.2-51.38-14.12   c-9.31-2.65-18.58-5.46-27.94-7.92c-15.2-4.26-30.35-8.75-45.79-12.09c-8.96-2.11-18.02-3.79-27.13-5.05   c-15.4-2.29-31.01-2.94-46.55-2.33c-9.86,0.06-19.67,1.19-29.46,2.27c-10.06,1.24-20.08,2.79-30.03,4.76   c0.14-0.27,0.43-0.8,0.57-1.06C203.15,618.96,227.64,610.31,252.94,604.95z"/>
	<path stroke="#000000" stroke-width="0.2" d="M898.69,645.01c-4.77,11.06-10.67,21.61-15.65,32.59   c2.61,2.05,4.9901,4.4301,7.84,6.1801c10.87-8.48,19.55-19.4,27.25-30.75c-4.42,10.4399-9.57,20.58-14.26,30.91   c-1.44,3.55-4.23,7-3.39,11.05c15.21-7.45,28.87-17.78,40.61-29.94c-0.47,0.87-0.98,1.72-1.52,2.56   c-9.81,13.38-19.64,26.77-29.05,40.44c-21.66-20.17-49.11-34.07-78.2-39.52c-32.54-6.25-66.89-1.3101-96.63,13.16   c-16.13,7.66-31.04,17.77-44.44,29.55c-5.77,5.01-10.9,10.69-16.44,15.94c1.88-3.44,4.14-6.64,6.33-9.87   c5.05-7.43,10.76-14.39,16.88-20.95c10.72-11.19,22.96-20.92,36.44-28.57c22.91-12.58,49.14-19.2599,75.32-18.08   c15.7599,0.65,31.14,4.86,45.68,10.78c6.67,3.58,13.43,7.01,19.73,11.24c5.19-4.21,9.97-8.94,14.34-14   C892.97,653.79,896,649.49,898.69,645.01z"/>
	<path fill="#DEAA87" stroke="#DEAA87" stroke-width="0.2" d="M61.65,649.86c10.78-2.63,22.26,0.44,31.25,6.67   c1.65,1.16,3.21,2.42,4.78,3.6899c-0.86,29.5601-5.42,58.85-11.12,87.83c2.24,0.71,4.54,2.02,6.97,1.47   c3.9-0.8,7.01-3.54,9.68-6.33c6.58-7.09,11.12-15.71,15.92-24.02c3.81-7.12,7.55-14.28,11.09-21.54   c1.46,8.41-0.27,16.91-0.17,25.37c-1.18,26.13-3.19,52.25-6.93,78.14c-5.03,33.95-12.83,67.77-26.64,99.31   c-1.84,4.5-5.1,8.73-4.67,13.84c-1.91,1.22-3.89,2.35-5.92,3.35c-10.78,5.11-23.88,4.66-34.31-1.09   c-12.5-6.78-21.62-18.39-28.55-30.55C6.75,856.66,0.89,822.69,0,789.48v-8.96c0.41-16.97,2.22-33.93,5.99-50.5   c4.78-20.58,12.22-40.98,24.99-58.01C38.77,661.95,48.89,652.72,61.65,649.86 M29.6,759.58c-4.87,21.44-7.5,43.82-3.88,65.67   c2.97,20.06,11.64,38.76,22.08,55.96c1.45,2.5099,3.22,4.83,5.22,6.93c-2.17-6.81-6.37-12.71-8.79-19.42   c-6.53-15.42-7.95-32.79-4.68-49.16c1.05-4.74,3.47-9,5.85-13.17c2.47-4.06,5.69-8.32,10.56-9.5c9.39-2.19,19.49,0.93,28.6-2.82   c-4.77-3.28-10.54-4.44-16.13-5.49c-6.16-0.98-12.56-1.23-18.68,0.15c-4.26,0.93-7.72,3.75-11.71,5.34   c-2.84-1.85-3.74-5.4-4.63-8.46c-3.38-14.48,0.36-29.22,1.47-43.72C32.24,747.49,31,753.59,29.6,759.58z"/>
	<path stroke="#000000" stroke-width="0.2" d="M229.09,649.79l0.61,0.41c4.81,9.24,12.37,16.54,19.78,23.71   c1.07-0.77,2.13-1.53,3.19-2.31c17.07-10.6,36.48-17.54,56.57-19.0699c10.47-0.96,20.97,0.0099,31.37,1.25   c15.99,2.67,31.44,7.93,45.97,15.0699c12.19,6.45,23.45,14.48,33.96,23.38c11.14,10.38,21.23,21.88,29.78,34.5   c0.65,1.01,1.27,2.05,1.91,3.09c-22.47-25.2-51.3-45.23-83.85-54.82c-18-5.47-37.03-7.38-55.77-5.98   c-35.39,2.26-69.64,17.11-96.23,40.43c-8.06-9.57-14.72-20.24-22.3-30.19c-3.02-4.45-6.45-8.6-9.23-13.2   c3.15,2.99,5.97,6.29,9.21,9.18c5.82,5.2,12.11,9.88,18.7,14.05c4.34,2.69,8.64,5.64,13.62,7.04c-0.73-5.64-3.96-10.46-6.16-15.58   c-4.01-8.94-8.46-17.67-12.33-26.67c7.62,11.62,16.54,22.45,27.29,31.33c2.63-2.2,5.24-4.41,7.87-6.61   C238.51,669.08,233.32,659.65,229.09,649.79z"/>
	<path fill="#DEAA87" stroke="#DEAA87" stroke-width="0.2" d="M1076.13,653.23c7.64,1.91,14.72,5.76,20.53,11.07   c13.5499,12.14,22.23,28.7,28.4399,45.56c8.55,23.57,12.23,48.68,12.9,73.67v9.9399c-0.64,24.9901-4.3199,50.09-12.85,73.67   c-5.47,14.94-12.87,29.5-23.8201,41.2c-7.7699,8.3799-17.99,15.09-29.58,16.25c-14.05,1.5099-27.3199-6.09-36.62-16.08   c-1.4401-1.56-2.79-3.18-4.1901-4.74c0.3201-4.49,0.42-8.98,0.42-13.47c-0.4-25.1-0.08-50.2-0.45-75.3   c-0.2001-8.84,0.39-17.84-1.98-26.46c5.6699-7.46,10.5199-15.5099,14.7999-23.84C1061.23,729.9,1070.24,691.53,1076.13,653.23    M1093.15,739.88c0.08,7.4,1.95,14.64,2.23,22.04c0.78,10.07,1.3199,21.58-5.35,29.95c-3.87-2.28-7.8101-4.6-12.2001-5.71   c-7.51-2.02-15.4299-0.95-22.85,0.88c-4.22,1.13-8.62,2.12-12.22,4.72c8.53,2.44,17.49,1.85,26.26,2.22   c5.74,0.02,9.9399,4.66,12.88,9.08c2.41,4.11,4.9299,8.27,6.2,12.91c3.51,16.52,2.3101,34.15-4.3199,49.76   c-2.6801,7.38-7.3,13.88-9.76,21.35c3.5-3.67,6.02-8.1,8.59-12.43c7.35-12.2401,13.15-25.4301,16.86-39.23   c6.55-23.75,5.16-48.96,0-72.83C1097.75,754.93,1096.39,747.08,1093.15,739.88z"/>
	<path fill="#CCCCCC" stroke="#CCCCCC" stroke-width="0.2" d="M735.69,681.69c29.74-14.47,64.09-19.41,96.63-13.16   c29.09,5.45,56.54,19.35,78.2,39.52c1.11,2.14,2.01,4.41,2.7,6.74c-13.1-0.69-26.14-2.11-39.22-3.04   c-6.2-0.44-12.52-1.59-18.65,0.02c-6.33-14.32-17.49-26.46-31.3-33.85c-10.69-5.76-22.89-8.62-35.02-8.2   c-20.65,0.34-40.69,10.77-53.26,27.09c-6.57,8.28-10.93,18.12-13.51,28.33c0.02-0.54,0.07-1.63,0.1-2.18   c-16.74,5-32.85,12.03-48.38,20.02c-2.36,1.14-4.82,2.08-7.28,2.98c1.25-6.78,4.09-13.19,8.11-18.78   c5.54-5.25,10.67-10.93,16.44-15.94C704.65,699.46,719.56,689.35,735.69,681.69z"/>
	<path fill="#CCCCCC" stroke="#CCCCCC" stroke-width="0.2" d="M216.38,709.45c26.59-23.32,60.84-38.17,96.23-40.43   c5.26,1.31,10.73,1.19,16.03,2.35c-14.28,2.08-28.28,7.48-39.12,17.19c-7.69,6.65-13.87,14.98-18.14,24.19   c-7.8-0.42-15.59,0.55-23.36,1.08c-11.66,1.08-23.37,1.67-35,3.08C213.82,714.3,214.89,711.75,216.38,709.45z"/>
	<path fill="#DCDDDE" stroke="#DCDDDE" stroke-width="0.2" d="M312.61,669.02c18.74-1.4,37.77,0.51,55.77,5.98   c-1.58,0.77-3.15,1.54-4.72,2.32c-10.91-5.11-23.1-6.48-35.02-5.95C323.34,670.21,317.87,670.33,312.61,669.02z"/>
	<path fill="#784421" stroke="#784421" stroke-width="0.2" d="M735.77,696.81c12.57-16.32,32.61-26.75,53.26-27.09   c12.1299-0.42,24.33,2.44,35.02,8.2c13.81,7.39,24.97,19.53,31.3,33.85c3.1801,7.25,5.29,15.03,5.82,22.95   c-0.4,2.07-0.89,4.11-1.34,6.1801c-7.71,0.16-15.43-0.19-23.14,0.06c-0.16-5.64-1.07-11.32-3.46-16.47   c3.75-3.02,6.49-7.55,6.24-12.5c0.14-7.01-5.48-13.56-12.4399-14.43c-4.63-0.81-9.25,1.12-12.64,4.19   c-8.66-6.03-19.72-7.76-30.04-6.35c-13.29,1.92-25.4,10.24-32.2,21.78c-3.65,5.93-5.64,12.71-6.4901,19.59   c-0.2,1.03-0.41,2.07-0.61,3.12c-7.67,0-15.34,0.16-23,0.01c-0.38-1.73-0.77-3.45-1.07-5.1801c0.17-3.23,0.76-6.4,1.28-9.58   C724.84,714.93,729.2,705.09,735.77,696.81z"/>
	<path fill="#784421" stroke="#784421" stroke-width="0.2" d="M328.64,671.37c11.92-0.53,24.11,0.84,35.02,5.95   c19.55,8.73,34.62,26.63,39.9,47.38c1.38,5.64,2.15,11.43,2.29,17.23c-8.28-0.19-16.56-0.41-24.84-0.03   c-0.3-6.2-1.91-12.23-3.87-18.09c4.42-5.42,4.89-13.78,0.26-19.22c-4.68-6.19-14.09-7.08-20.23-2.55   c-11.77-5.89-26.01-7.38-38.31-2.23c-17.08,6.54-29.1,24.07-29,42.36c-8.31,0.62-16.69,0.97-25,0.09   c0.11-10.15,2.33-20.26,6.52-29.51c4.27-9.21,10.45-17.54,18.14-24.19C300.36,678.85,314.36,673.45,328.64,671.37z"/>
	<path fill="#CCCCCC" stroke="#CCCCCC" stroke-width="0.2" d="M368.38,675c32.55,9.59,61.38,29.62,83.85,54.82   c3.71,5.57,6.33,11.84,7.66,18.4c-10.04-4.62-19.73-10.0099-30.03-14.1c-8.65-3.43-17.17-7.42-26.3-9.42   c-5.28-20.75-20.35-38.65-39.9-47.38C365.23,676.54,366.8,675.77,368.38,675z"/>
	<path stroke="#000000" stroke-width="0.2" d="M784.35,695.4c10.32-1.41,21.38,0.3199,30.04,6.35c-4.9,5.33-5.56,14.07-0.83,19.72   c4.49,6.01,13.52,7.14,19.67,3.02c2.39,5.15,3.3,10.83,3.46,16.47c-0.21,11.5-4.41,23-12.34,31.42   c-8.38,9.32-20.8,14.87-33.35,14.67c-14.01,0.19-27.7-6.9-36.05-18.06c-7.12-9.08-10.01-20.82-9.29-32.22   c0.85-6.88,2.84-13.66,6.4901-19.59C758.95,705.64,771.06,697.32,784.35,695.4z"/>
	<path stroke="#000000" stroke-width="0.2" d="M318.86,699.81c12.3-5.15,26.54-3.66,38.31,2.23c-6.91,5.44-7.66,16.86-0.97,22.77   c5.71,5.67,15.66,4.89,20.94-1c1.96,5.86,3.57,11.89,3.87,18.09c-0.09,11.88-4.37,23.86-12.65,32.5   c-8.23,8.94-20.18,14.28-32.33,14.47c-11.38,0.28-22.66-4.22-31.09-11.8c-9.69-8.78-15.36-21.81-15.08-34.9   C289.76,723.88,301.78,706.35,318.86,699.81z"/>
	<path fill="#F9F9F9" stroke="#F9F9F9" stroke-width="0.2" d="M814.39,701.75c3.39-3.07,8.01-5,12.64-4.19   c6.96,0.87,12.58,7.42,12.4399,14.43c0.25,4.95-2.49,9.48-6.24,12.5c-6.15,4.12-15.18,2.99-19.67-3.02   C808.83,715.82,809.49,707.08,814.39,701.75z"/>
	<path fill="#F9F9F9" stroke="#F9F9F9" stroke-width="0.2" d="M357.17,702.04c6.14-4.53,15.55-3.64,20.23,2.55   c4.63,5.44,4.16,13.8-0.26,19.22c-5.28,5.89-15.23,6.67-20.94,1C349.51,718.9,350.26,707.48,357.17,702.04z"/>
	<path fill="#E6E6E6" stroke="#E6E6E6" stroke-width="0.2" d="M855.35,711.77c6.13-1.61,12.45-0.46,18.65-0.02   c13.08,0.93,26.12,2.35,39.22,3.04c3.73,13.55-0.83,28.01-9.6299,38.59c-13.22,14.21-30.72,23.5-48.8701,29.79   c-2.74,0.91-5.52,1.64-8.31,2.32l0.46-0.64c10.71-14.2,16.21-32.36,14.3-50.13C860.64,726.8,858.53,719.02,855.35,711.77z"/>
	<path fill="#E6E6E6" stroke="#E6E6E6" stroke-width="0.2" d="M248.02,713.83c7.77-0.53,15.56-1.5,23.36-1.08   c-4.19,9.25-6.41,19.36-6.52,29.51c-0.42,15.98,5.41,31.53,14.55,44.47c-2.1-0.5-4.22-0.84-6.33-1.17   c-14.87-5.41-29.35-12.25-41.8-22.14c-6.22-5.81-12.25-12.14-15.72-20.03c-3.88-8.2-4.55-17.68-2.54-26.48   C224.65,715.5,236.36,714.91,248.02,713.83z"/>
	<path fill="#E6E6E6" stroke="#E6E6E6" stroke-width="0.2" d="M673.98,742.98c15.53-7.99,31.64-15.02,48.38-20.02   c-0.03,0.55-0.08,1.64-0.1,2.18c-0.52,3.18-1.11,6.35-1.28,9.58c-1.85,17.45,3.32,35.45,13.89,49.42c2.25,3.04,4.88,5.78,7.25,8.73   c-15.15,0.19-30.41-1.29-45.13-4.92c-10.07-2.82-20.8-7.07-26.8-16.15c-5.14-7.52-5.33-17.22-3.49-25.84   C669.16,745.06,671.62,744.12,673.98,742.98z"/>
	<path fill="#E6E6E6" stroke="#E6E6E6" stroke-width="0.2" d="M403.56,724.7c9.13,2,17.65,5.99,26.3,9.42   c10.3,4.09,19.99,9.48,30.03,14.1c1.48,6.9901,1.47,14.51-1.48,21.13c-2.9,7.01-8.95,12.2-15.68,15.41   c-15.18,7.42-32.36,8.38-48.89,10.01c-3.36,0.1-6.72,0.18-10.08,0.23c13.98-13.87,22.59-33.24,22.09-53.07   C405.71,736.13,404.94,730.34,403.56,724.7z"/>
	<path fill="#502D16" stroke="#502D16" stroke-width="0.2" d="M720.98,734.72c0.3,1.73,0.69,3.45,1.07,5.1801   c7.66,0.15,15.33-0.01,23-0.01c0.2-1.05,0.41-2.09,0.61-3.12c-0.72,11.4,2.17,23.14,9.29,32.22c8.35,11.16,22.04,18.25,36.05,18.06   c12.55,0.2,24.97-5.35,33.35-14.67c7.9301-8.42,12.13-19.92,12.34-31.42c7.71-0.25,15.43,0.1,23.14-0.06   c0.45-2.07,0.94-4.11,1.34-6.1801c1.91,17.77-3.59,35.9301-14.3,50.13c-5.18,2.87-11.45,3.2401-17.12,4.86   c-9.09,1.49-18.22,3.07-27.45,3.24c-7-1.67-14.2-0.71-21.3-0.82c-9.34-0.03-18.67,0.1-27.99-0.18c-3.4-0.15-6.78,0.29-10.1,0.91   l-0.79,0.01c-2.37-2.95-5-5.69-7.25-8.73C724.3,770.17,719.13,752.17,720.98,734.72z"/>
	<path fill="#D89B72" stroke="#D89B72" stroke-width="0.2" d="M1093.15,739.88c3.24,7.2,4.6,15.05,6.3199,22.71   c5.16,23.87,6.55,49.08,0,72.83c-3.71,13.8-9.51,26.99-16.86,39.23c-2.5699,4.33-5.09,8.7599-8.59,12.43   c2.46-7.47,7.08-13.97,9.76-21.35c6.63-15.61,7.83-33.24,4.3199-49.76c-1.27-4.64-3.7899-8.8-6.2-12.91   c-2.9401-4.42-7.14-9.06-12.88-9.08c-8.77-0.37-17.73,0.22-26.26-2.22c3.6-2.6,8-3.59,12.22-4.72c7.42-1.83,15.34-2.9,22.85-0.88   c4.39,1.11,8.3301,3.4301,12.2001,5.71c6.6699-8.37,6.13-19.88,5.35-29.95C1095.1,754.52,1093.23,747.28,1093.15,739.88z"/>
	<path fill="#D89A72" stroke="#D89A72" stroke-width="0.2" d="M29.6,759.58c1.4-5.99,2.64-12.09,5.28-17.69   c-1.11,14.5-4.85,29.24-1.47,43.72c0.89,3.06,1.79,6.61,4.63,8.46c3.99-1.59,7.45-4.41,11.71-5.34c6.12-1.38,12.52-1.13,18.68-0.15   c5.59,1.05,11.36,2.21,16.13,5.49c-9.11,3.75-19.21,0.63-28.6,2.82c-4.87,1.18-8.09,5.44-10.56,9.5c-2.38,4.17-4.8,8.43-5.85,13.17   c-3.27,16.37-1.85,33.74,4.68,49.16c2.42,6.71,6.62,12.61,8.79,19.42c-2-2.1-3.77-4.42-5.22-6.93   c-10.44-17.2-19.11-35.9-22.08-55.96C22.1,803.4,24.73,781.02,29.6,759.58z"/>
	<path fill="#502D16" stroke="#502D16" stroke-width="0.2" d="M264.86,742.26c8.31,0.88,16.69,0.53,25-0.09   c-0.28,13.09,5.39,26.12,15.08,34.9c8.43,7.58,19.71,12.08,31.09,11.8c12.15-0.19,24.1-5.53,32.33-14.47   c8.28-8.64,12.56-20.62,12.65-32.5c8.28-0.38,16.56-0.16,24.84,0.03c0.5,19.83-8.11,39.2-22.09,53.07   c-17.24,0.36-34.49,0.38-51.73,0.13c-7.31-0.03-14.59-0.75-21.84-1.55c-10.37-1.65-20.92-3.08-30.78-6.85   C270.27,773.79,264.44,758.24,264.86,742.26z"/>
	<g>
		<linearGradient id="SVGID_1_" gradientUnits="userSpaceOnUse" x1="660.8149" y1="690.2492" x2="941.48" y2="690.2492">
			<stop offset="0" style="stop-color:#E8C2AA"/>
			<stop offset="1" style="stop-color:#D48F62"/>
		</linearGradient>
		<path fill="url(#SVGID_1_)" stroke="#E2B496" stroke-width="0.2" d="M939.8201,656.9399    C938.53,635.28,934.4099,613.9,929.21,592.87c0.47-0.0299,1.42-0.1,1.9-0.13c-15.33-5.84-31.3199-10.45-47.74-11.6499    c-21.5-2.1401-43.25,1.5399-63.5499,8.6099c-10.9601,3.6401-21.6201,8.16-32.1401,12.9c-5.6599,2.55-11.3799,4.9801-16.8499,7.92    c-17.2001,7.8-34.1602,16.1499-51.4202,23.83c-10.1099,4.29-20.21,8.62-30.45,12.58c0.67,0.73,1.3401,1.4601,2.02,2.2101    c-3.24,4.46-7.34,8.48-9.05,13.86c-1.83,1.97-2.9199,4.47-4.0999,6.86c-4.1301,8.78-8.0601,17.86-9.4001,27.5499    c-3.74,14.9202-5.1099,30.3-6.4199,45.5801c-0.97,8.17-2.23,16.62,0.25,24.66c2.13,8.9,8.3999,16.4,16.24,20.95    c11.9099,6.91,26.0901,6.9901,39.45,7.7401c8.23,0.8199,16.6001,0.21,24.76,1.83c10.6901,1.39,21.5,1.92,32.29,1.82    c13.9299,0.02,28.1699,0.46,41.71-3.41c-0.09-1.09-0.1499-2.16-0.21-3.22c5.3101-0.52,10.88-0.76,15.6799-3.38    c-0.6099-0.07-1.8199-0.2-2.4299-0.27c-9.0901,1.49-18.22,3.07-27.45,3.24c-0.8301,0.05-2.5,0.16-3.3301,0.22    c-5.6599,0.34-11.3199,0.28-16.98,0.31c-13.02-0.17-26.1,0.54-39.0801-0.62l-0.7899,0.01c-15.15,0.19-30.41-1.29-45.13-4.92    c-10.0701-2.82-20.8-7.07-26.8-16.15c-5.1399-7.52-5.33-17.22-3.49-25.84c1.25-6.78,4.0901-13.19,8.1101-18.7801    c1.8799-3.4399,4.1399-6.6399,6.33-9.8699c5.0499-7.4301,10.76-14.3901,16.88-20.9501c10.72-11.1901,22.96-20.92,36.4399-28.5699    C757.37,655.21,783.6,648.53,809.78,649.71c15.76,0.65,31.1399,4.8601,45.6799,10.78c6.67,3.5801,13.4301,7.01,19.73,11.24    c5.1901-4.21,9.97-8.9399,14.3401-14c3.4399-3.9399,6.47-8.24,9.1599-12.72c-4.77,11.0601-10.6699,21.61-15.6499,32.59    c2.61,2.05,4.99,4.4301,7.84,6.1801c10.87-8.48,19.5499-19.4,27.25-30.75c-4.42,10.4399-9.5699,20.58-14.26,30.9099    c-1.4401,3.55-4.23,7-3.39,11.05c15.21-7.45,28.87-17.78,40.6101-29.9399c0.0999-0.0901,0.2899-0.27,0.3899-0.3501    C939.9299,662.4,939.99,659.5801,939.8201,656.9399z"/>
		<linearGradient id="SVGID_2_" gradientUnits="userSpaceOnUse" x1="854.72" y1="725.515" x2="940.6443" y2="725.515">
			<stop offset="0" style="stop-color:#E8C2AA"/>
			<stop offset="1" style="stop-color:#D48F62"/>
		</linearGradient>
		<path fill="url(#SVGID_2_)" stroke="#E2B496" stroke-width="0.2" d="M910.52,708.05c1.11,2.1399,2.01,4.4099,2.7,6.74    c3.73,13.55-0.83,28.0099-9.6299,38.59c-13.2201,14.21-30.7201,23.5-48.8701,29.79c3.7,0.85,7.4301-0.93,11.15-0.02    c4.1,1.04,8-1.16,11.7101-2.61c9.7999-4.55,19.5599-9.32,28.4099-15.56c4.89-3.67,10.27-7.31,13.1001-12.92    C933.54,734.0801,939,710.6,940.2,687.99c-0.03-6.79,1.3601-13.74-0.6299-20.38C929.76,680.99,919.9299,694.38,910.52,708.05z"/>
	</g>
	<path fill="#3B1902" stroke="#3B1902" stroke-width="0.2" d="M742.91,792.86c3.32-0.62,6.7-1.06,10.1-0.91   c9.32,0.28,18.65,0.15,27.99,0.18c7.1,0.11,14.3-0.85,21.3,0.82c-0.83,0.05-2.5,0.16-3.33,0.22c-5.66,0.34-11.3199,0.28-16.98,0.31   C768.97,793.31,755.89,794.02,742.91,792.86z"/>
	<g>
		<linearGradient id="SVGID_3_" gradientUnits="userSpaceOnUse" x1="191.995" y1="732.41" x2="273.08" y2="732.41">
			<stop offset="0" style="stop-color:#D48F62"/>
			<stop offset="1" style="stop-color:#E8C2AA"/>
		</linearGradient>
		<path fill="url(#SVGID_3_)" stroke="#E2B496" stroke-width="0.2" d="M215.56,743.39c-3.88-8.2001-4.55-17.6801-2.54-26.4801    c0.8-2.6099,1.87-5.1599,3.36-7.46c-8.06-9.5699-14.72-20.24-22.3-30.1899c-2.87,8.36-2.12,17.3201-1.56,25.98    c1.11,15.4399,5.63,30.87,14.69,43.56c2.13,2.9,4.49,5.62,6.77,8.4c6.21,8.03,15.3701,12.85,24.04,17.75    c7.74,3.9,15.42,8.47,24.11,9.87c3.61,0.65,7.29,0.65,10.95,0.74c-14.87-5.41-29.35-12.25-41.8-22.14    C225.06,757.61,219.03,751.28,215.56,743.39z"/>
		<linearGradient id="SVGID_4_" gradientUnits="userSpaceOnUse" x1="194.06" y1="709.7168" x2="469.8381" y2="709.7168">
			<stop offset="0" style="stop-color:#D48F62"/>
			<stop offset="1" style="stop-color:#E8C2AA"/>
		</linearGradient>
		<path fill="url(#SVGID_4_)" stroke="#E2B496" stroke-width="0.2" d="M469.55,753.41c-1.8-13.7599-2.29-27.65-3.65-41.46    c-1.27-14.33-3.75-28.58-8.0599-42.3199c-0.25-1.03-0.4701-2.0699-0.6801-3.09c2.0199-0.52,4.0399-1.0601,6.09-1.49    c-9.3999-0.9301-18.64-2.98-27.74-5.4501c-17.1799-4.5099-34.3201-9.2-51.38-14.12c-9.3099-2.6499-18.58-5.46-27.9401-7.9199    c-15.2-4.26-30.3499-8.75-45.7899-12.0901c-8.96-2.11-18.02-3.79-27.13-5.05c-15.4-2.2899-31.01-2.9399-46.55-2.3298    c-9.86,0.0599-19.67,1.1899-29.46,2.2699c-0.82,6.9401-4.32,13.13-6.09,19.83c-3.27,11.4601-6.5,23.1001-7.11,35.05    c5.82,5.2,12.11,9.88,18.7,14.05c4.34,2.6899,8.64,5.6399,13.62,7.04c-0.73-5.6401-3.96-10.4601-6.16-15.5801    c-4.01-8.9399-8.46-17.6699-12.33-26.6699c7.62,11.6199,16.54,22.45,27.29,31.3298c2.63-2.2,5.24-4.4099,7.87-6.6099    c-4.54-9.72-9.73-19.15-13.96-29.01l0.61,0.4099c4.81,9.24,12.37,16.54,19.78,23.71c1.07-0.7699,2.13-1.5299,3.19-2.3099    c17.07-10.6,36.48-17.5399,56.57-19.0699c10.47-0.96,20.97,0.01,31.37,1.25c15.9901,2.6699,31.4401,7.9299,45.9701,15.0699    c12.1899,6.4501,23.45,14.4801,33.96,23.38c11.1399,10.38,21.23,21.88,29.78,34.5c0.6499,1.01,1.27,2.05,1.9099,3.0901    c3.71,5.5699,6.3301,11.8399,7.66,18.3999c1.48,6.9901,1.47,14.51-1.48,21.13c-2.9,7.01-8.9501,12.2-15.6801,15.41    c-15.1799,7.42-32.36,8.38-48.8899,10.01c-3.3601,0.1-6.7201,0.18-10.0801,0.23c-17.24,0.36-34.49,0.38-51.73,0.13    c-7.3101-0.03-14.5901-0.75-21.84-1.55c-1.49,0.21-2.97,0.46-4.43,0.74c3.7,1.01,7.53,1.35,11.3301,1.73    c4.2999,0.17,7.0999,4.33,11.4399,4.45c6.49,0.58,13.02,0.77,19.53,1.06c16.36-0.59,32.77-0.41,49.0599-2.34    c12.39-1.49,24.9501-1.06,37.3099-2.8799c9.7001-1.52,19.3601-5.48,26.2101-12.7C468.01,775.59,470.8,764.1,469.55,753.41z"/>
	</g>
	<path fill="#E5BB9F" stroke="#E5BB9F" stroke-width="0.2" d="M542.86,886.94c14.97-5.02,31.74-4.17,46.31,1.82   c2.88,1.16,6.28,2.29,7.37,5.55c-6.89,0.77-13.83,1.32-20.74,0.45c-14.8-1.66-29.61,0.78-44.19,3.12   c-1.79,0.34-3.57-0.07-5.29-0.52C530.37,891.98,536.76,889.26,542.86,886.94z"/>
	<path stroke="#000000" stroke-width="0.2" d="M1030.9399,903.77c1.4,1.56,2.75,3.18,4.1901,4.74c0.21,7.69,2.21,15.18,3.36,22.76   c15.6901,94.88,29.77,190.08,39.27,285.79c2.02,24,4.49,47.97,5.58,72.0299c2.9401,49.5701,2.9,99.74-6.5299,148.6801   c-4.38,22.5499-11.05,44.86-21.8401,65.22c-6.83,12.5601-14.7999,24.77-25.2,34.6901c-7.4-34.3-16.67-68.29-29.52-100.9701   c-2.05-6.0599-5.04-11.83-9.46-16.5c-10.39-11.26-24.16-18.63-37.85-25.1c-19.72-9.0599-40.39-15.85-61.21-21.86   c-62.7-17.49-126.96-28.85-191.44-37.36c-0.95,1.98-1.91,3.97-2.86,5.97c-11.21-3.2-22.79-4.74-34.22-6.9299   c3.82-16.28,6.84-32.77,11.36-48.88c1.85-6.4301,3.7-12.8601,5.42-19.3301c0.54-1.5599,0.74-3.87,2.83-4   c26.07-6.77,51.73-15.39,76.23-26.64c70.86-31.5299,133.62-80.9299,181.2-142.1599c18.75-23.9401,35.05-49.79,48.87-76.8701   c9.59-18.15,18.72-36.57,26.23-55.69C1022.56,942.81,1028.86,923.66,1030.9399,903.77z"/>
	<path stroke="#000000" stroke-width="0.2" d="M91.81,914.29c3.7-2.27,6.88-5.25,10.03-8.2c5.88,33.67,17.55,66.1,32.04,96.97   c28.17,59.66,69.03,113.05,117.79,157.36c3.54,4.49,9.33,5.73,13.35,9.61c55.26,45.3199,120.87,77.9199,190.4,94.51   c0.15,0.6,0.46,1.7999,0.62,2.39c1.34,5.23,2.97,10.38,4.28,15.62c4.13,17.58,8.14,35.1799,12.42,52.72   c-10.63,1.9199-21.26,3.8199-31.79,6.2c-0.95-1.7-1.89-3.38-2.84-5.0599c-68.35,8.39-136.55,19.22-203.33,36.25   c-20.5,5.4099-40.87,11.49-60.46,19.65c-10.82,4.6499-21.58,9.7999-30.95,17.0199c-6,4.74-11.8,10.4801-13.97,18.04   c-10.06,39.64-17.84,79.8199-24.42,120.17c-5.51-11.8201-8.9-24.49-12.51-36.98c-12.15-46.2101-17.74-93.8101-22.02-141.29   c-2.8-27.67-3.79-55.48-4.28-83.27c-0.59-52.01,1.09-104.01,3.75-155.9399c3.58-70.9301,9.4-141.72,15.97-212.42   C87.92,916.64,89.9,915.51,91.81,914.29z"/>
	<path fill="#D38D5F" stroke="#D38D5F" stroke-width="0.2" d="M627.95,916.81c3.37,4.01,5.54,8.82,7.57,13.61   c2.51,6.11,4.34,12.8,3.28,19.45c-1.02,6.78-7.07,12.32-13.83,13.08c-6.12,0.82-12.1899-0.94-17.8199-3.16   c-3.09-1.0099-6.2401-2.75-9.57-2.22c-4.49,1.32-7.97,4.63-11.78,7.18c-6.46,4.38-13.69,8.98-21.85,8.31   c-11.2-0.85-20.79-7.29-30.14-12.91c-2.95-1.61-6.42-3.85-9.84-2.23c-6.8199,2.68-12.9,7.23-20.16,8.78   c-4.71,1.09-9.81-1.07-12.45-5.08c-4.41-6.29-4.36-14.78-1.37-21.65c2.57-5.5699,5.5-11.24,10.22-15.29   c-2.85,7.63-7.72,14.86-7.38,23.34c-0.35,5.11,3.05,10.76,8.29,11.67c6.48-0.18,11.54-4.85,17.16-7.49   c4.31-2.45,9.56-3.3,14.3199-1.69c9.77,3.39,16.53,12.37,26.58,15.19c7.15,1.71,14.2-1.63,20.04-5.48   c5.6201-3.54,11.1-7.92,17.82-9.05c9.77-1.11,18.62,5.84,28.4,4.31c3.66-0.48,6.43-3.45,7.01-7.03   C634.54,937.67,629.96,927.23,627.95,916.81z"/>
	<path fill="#AA0000" stroke="#AA0000" stroke-width="0.2" d="M492.4,1042.42c14.06-2.53,28.89-3.9701,42.73,0.45   c11.51,3.63,22.76,8.04,34.32,11.49c7.59,1.1801,14.98-2.16,22.34-3.59c13.92-3.42,27.79-7.55,42.14-8.6801   c12.37-0.96,24.19,3.41,36.15,5.8c8.99,1.99,18.29,2.54,27.45,1.52c5.8799-0.4701,11.61-2,17.47-2.64   c-8.45,13.3099-18,25.9399-28.75,37.48c-8.09,8.39-16.96,16.36-27.62,21.34c-35.29,16.6-75.59,23.63-114.2,16.75   c-21.4-3.74-42.65-10.2-61.36-21.4199c-16.9-12.41-27.91-30.78-39.26-48.01c1.6-0.88,3.24-1.8301,5.12-1.9401   C463.68,1049.5699,477.79,1044.67,492.4,1042.42 M622.1,1050.22c-8.96,1.86-17.94,4.01-26.48,7.3c-4.07-0.35-7.98,1.53-11.99,2.01   c-6.66,1.4199-13.49,1.24-20.19,0.26l-0.22-0.64c-10.91-1.67-21.41-5.3-32.31-6.97c-4.49-0.41-9.3199-0.79-13.5,1.2   c-1.7599,0.77-3.42,3.1801-1.69,4.85c3.11,2.09,6.92,2.65,10.48,3.6c8.65,1.87,17.01,4.9601,25.8,6.2301   c9.59,1.6299,19.32,1.84,28.98,2.84c5.99,0.52,11.97-0.49,17.92-1.12c4.49-0.5801,9.16-0.7001,13.3-2.73   c5.26-0.89,10.96-0.8101,15.67-3.6101c3,0.8601,6.1-0.2,9.11-0.5199c9.96-1.66,20.12-1.74,30.02-3.79c2.57-0.52,5.3-0.91,7.41-2.61   c-10.2-1.65-20.72-1.86-30.5099-5.4401C636.9,1048.52,629.3,1048.89,622.1,1050.22 M491.76,1082.37   c1.64,4.5699,5.72,7.5,9.09,10.77c10.01,9.1899,23.21,13.61,36.16,16.8099c9.8,2.4401,19.92,3.02,29.96,3.8201   c9.33,0.11,18.73,0.45,28-0.9501c5.9301-0.9299,12.17-1.2,17.57-4.11c3.17-0.0599,6.2-1.1699,9.27-1.87   c5.49-1.51,11.29-2.1899,16.37-4.9399c10.67-3.04,19.72-10.34,26.75-18.76c-21.07,3.78-42.42,6.23-63.82,6.9399   c-6.7-0.45-13.4,0.3301-20.1,0.28c-14.66-0.23-29.34-0.21-43.93-1.77c-5.83-1.24-11.83-1.21-17.71-2.13   C510.17,1085.05,500.96,1083.6899,491.76,1082.37z"/>
	<linearGradient id="SVGID_5_" gradientUnits="userSpaceOnUse" x1="514.6753" y1="1060.0159" x2="674.8312" y2="1060.0159">
		<stop offset="0" style="stop-color:#B11414"/>
		<stop offset="1" style="stop-color:#BB3232"/>
	</linearGradient>
	<path fill="url(#SVGID_5_)" d="M644.1805,1050.9395c-7.0323-2.5718-14.6673-2.2001-21.9006-0.8639   c-9.0013,1.8685-18.0228,4.0284-26.6022,7.3336c-4.0887-0.3516-8.0168,1.5371-12.0453,2.0193   c-6.6907,1.4265-13.5522,1.2457-20.2832,0.2612l-0.2209-0.6429c-10.9603-1.6777-21.5087-5.3245-32.4591-7.0021   c-4.5107-0.412-9.3629-0.7937-13.5623,1.2054c-1.768,0.7736-3.4357,3.1947-1.6977,4.8723   c3.1245,2.0996,6.952,2.6622,10.5283,3.6166c8.6899,1.8787,17.0884,4.983,25.9191,6.2589   c9.6343,1.6373,19.4092,1.8484,29.1136,2.853c6.0176,0.5225,12.0252-0.4922,18.0027-1.1251   c4.5107-0.5828,9.2023-0.7034,13.3613-2.7426c5.2842-0.8942,11.0105-0.8138,15.7423-3.6268   c3.0139,0.8641,6.1281-0.2008,9.152-0.5223c10.0059-1.6676,20.2128-1.7479,30.1585-3.8075   c2.582-0.5223,5.3245-0.9142,7.4441-2.6219C664.5842,1054.7469,654.0156,1054.536,644.1805,1050.9395z"/>
	<linearGradient id="SVGID_6_" gradientUnits="userSpaceOnUse" x1="491.3387" y1="1098.205" x2="665.3075" y2="1098.205">
		<stop offset="0" style="stop-color:#B11414"/>
		<stop offset="1" style="stop-color:#BB3232"/>
	</linearGradient>
	<path fill="url(#SVGID_6_)" d="M601.1931,1090.1194c-6.731-0.452-13.4618,0.3315-20.1927,0.2813   c-14.7277-0.231-29.4754-0.2108-44.1326-1.7781c-5.857-1.2457-11.8846-1.2156-17.7918-2.1399   c-9.2424-1.4164-18.4949-2.7828-27.7373-4.1089c1.6476,4.5911,5.7464,7.5347,9.132,10.8197   c10.0561,9.2324,23.317,13.6729,36.3268,16.8876c9.8452,2.4513,20.0118,3.0339,30.0981,3.8376   c9.3731,0.1105,18.8164,0.452,28.1292-0.9545c5.9574-0.9342,12.2262-1.2054,17.6511-4.1289   c3.1846-0.0602,6.2286-1.1753,9.3128-1.8787c5.5153-1.517,11.342-2.2001,16.4454-4.9626   c10.7193-3.0541,19.8111-10.3877,26.8734-18.8466C644.1403,1086.9448,622.6919,1089.4061,601.1931,1090.1194z"/>
	<path fill="#D89A72" stroke="#D89A72" stroke-width="0.2" d="M667.24,1266.29c3.45-0.74,6.86-1.9601,10.42-2   c0.83,0.73,1.57,1.58,2.33,2.4299c-1.72,6.47-3.57,12.9-5.42,19.3301c-7.3,2.74-15.19,2.63-22.82,3.5299   c-16.23,1.42-32.49,2.53-48.79,2.6001c-10.98,1.1-21.97-0.2301-32.96-0.01c-28.89-0.15-57.74-2.4501-86.43-5.75   c-7.77-1.14-15.76-1.28-23.25-3.87c-1.31-5.24-2.94-10.39-4.28-15.62c0.71-0.6001,1.42-1.1901,2.13-1.77   c23.68,5.1,47.62,9.13,71.8,10.76C575.86,1279.3101,622.28,1276.1899,667.24,1266.29z"/>
	<path fill="#DEAA87" stroke="#DEAA87" stroke-width="0.2" d="M460.32,1282.55c7.49,2.59,15.48,2.73,23.25,3.87   c28.69,3.2999,57.54,5.6,86.43,5.75c10.99-0.2201,21.98,1.11,32.96,0.01c16.3-0.0701,32.56-1.1801,48.79-2.6001   c7.63-0.8999,15.52-0.7899,22.82-3.5299c-4.52,16.11-7.54,32.6-11.36,48.88c11.43,2.1899,23.0099,3.73,34.22,6.9299   c-32.96,70.51-66.17,140.9-99.22,211.38c-6.41,13.3101-12.31,26.88-19.03,40.03c-18.28-32.61-36-65.55-54.08-98.28   c-28.02-51.1899-56.16-102.3199-84.15-153.52c10.53-2.38,21.16-4.28,31.79-6.2C468.46,1317.73,464.45,1300.13,460.32,1282.55z"/>
	<path fill="#CCCCCC" stroke="#CCCCCC" stroke-width="0.2" d="M700.29,1335.89c64.48,8.51,128.7401,19.87,191.44,37.36   c20.82,6.01,41.49,12.8,61.21,21.86c13.69,6.47,27.46,13.84,37.85,25.1c4.42,4.67,7.41,10.4401,9.46,16.5   c12.85,32.6801,22.12,66.67,29.52,100.9701c10.75,50.8199,17.2999,102.46,21.23,154.23c4.09,51.9099,5.64,104.01,5.1,156.08   c-0.1,24.01-0.8199,48.03-2.09,72.01h-29.49c-75.51-0.4399-151.02-0.59-226.52-0.87c-105.33-0.24-210.66-1.17-315.99-1.21   c-55.32-0.0601-110.65-0.65-165.97-0.7301c-7.64,1.6901-15.35-0.3199-23.04-0.1699c-66.38-0.0701-132.77-0.35-199.15-0.67   c-2.86-24.3099-4.38-48.76-5.59-73.1899c-3.94-98.78,1.72-197.91,16.72-295.62c6.58-40.3501,14.36-80.53,24.42-120.17   c2.17-7.5599,7.97-13.3,13.97-18.04c9.37-7.22,20.13-12.37,30.95-17.0199c19.59-8.16,39.96-14.2401,60.46-19.65   c66.78-17.03,134.98-27.86,203.33-36.25c0.95,1.6799,1.89,3.36,2.84,5.0599c27.99,51.2001,56.13,102.3301,84.15,153.52   c18.08,32.73,35.8,65.67,54.08,98.28c6.72-13.15,12.62-26.72,19.03-40.03c33.05-70.48,66.2599-140.87,99.22-211.38   C698.38,1339.86,699.34,1337.87,700.29,1335.89 M703.41,1341.26c-4.1,7.1899-7.03,15-10.75,22.4   C658.67,1436,624.59,1508.3,590.65,1580.67c-4.12,8.14-7.41,16.6899-11.91,24.6499c-2.42-3.38-4.36-7.0499-6.29-10.7   c-46.25-84.15-92.46-168.3199-138.85-252.38c-14.56,1.76-29.17,3.33-43.65,5.63c17.55,27.08,35.61,53.83,53.41,80.75   c42.02,63.64,84.31,127.11,126.31,190.76c4.24,5.89,7.66,12.35,12.3,17.97c9.6801-17.9299,18.3101-36.4299,27.96-54.38   c36.83-72.76,74.18-145.25,111.1-217.95c2.9399-6.22,6.55-12.13,9-18.5701c-5.6201-1.1499-11.21-2.3999-16.77-3.76   C710.02,1342.1,706.71,1340.59,703.41,1341.26 M733.5,1348.21c-9.82,20.0901-20.27,39.88-30.34,59.8501   c-36.5099,71.5299-73,143.0699-109.5099,214.6c-3.89,7.23-7.12,14.83-11.42,21.85c-1.24-1.7-2.45-3.38-3.61-5.1   C515.27,1543.74,451.88,1448.1,388.5,1352.46c-1.06-2.26-3.5-1.6699-5.49-1.3999c-30.47,4.6399-60.88,9.74-91.08,15.8799   c-38.41,8.15-76.99,16.77-113.49,31.53c-13.55,5.85-27.61,12.14-37.71,23.26c-4.09,4.2001-5.07,10.16-6.35,15.65   c-25.58,105.08-38.06,213.16-39.87,321.22c-0.87,50.17,0.92,100.4,5.68,150.36c18.26,0.24,36.52-0.1899,54.77,0.6001   c38.71,0.0299,77.42,0.1799,116.12,0.2c1.65-16.54,2.49-33.16,3.86-49.73c4.14-56.29,8.29-112.5801,12.44-168.86   c0.93-10.02,1.09-20.12,2.48-30.0901c0.79,0.01,2.37,0.04,3.16,0.0601c0.97,6.88,1.17,13.84,1.82,20.77   c2.26,29.6799,4.64,59.35,6.9,89.02c3.46,46.2999,7.46,92.5599,10.57,138.88c32.22,0.3899,64.46,0.11,96.69,0.46   c29.99,0.28,59.99-0.25,89.97,0.4299c50.01,0.26,100.03,0.2201,150.04,0.4601c15.98,0.6899,31.99,0.33,47.99,0.45   c49.9-0.12,99.81,0.48,149.71,0.23c2.54-35.99,5.68-71.9399,8.43-107.9199c3.97-48.63,7.53-97.3,11.75-145.91   c0.83-0.0701,2.5-0.21,3.33-0.28c0.8101,5.37,1.04,10.8,1.53,16.21c4.68,56,9.34,112,14.03,168   c2.06,23.3301,3.6299,46.7201,6.06,70.03c21.72,0.11,43.43,0.8301,65.16,0.65c29.97,0.02,59.94,0.05,89.91,0.22   c1.38-13.59,0.76-27.27,1.6799-40.89c1.0601-51.2699,0.13-102.58-3.0299-153.7699c-3.0601-49.55-8.1801-99.03-16.8601-147.9301   c-8.1799-46-19.46-91.65-36.85-135.09c-4.48-10.8301-14.43-17.9701-24.03-23.99c-21.59-12.9-45.58-21.04-69.49-28.42   c-45.64-13.46-92.35-22.95-139.24-30.87C750.56,1350.64,742.12,1348.64,733.5,1348.21 M868.02,1686.95   c-5.9,74.9501-11.82,149.91-17.86,224.8601c12.61,1.1299,25.27,1.8899,37.9301,2.24c-4.33-54.29-9.07-108.5601-13.4901-162.8401   c-2.16-22.48-3.36-45.0499-6.0099-67.47C868.35,1684.78,868.17,1685.85,868.02,1686.95 M290.88,1692.92   c-3.78,50.6699-7.46,101.35-11.22,152.0299c-1.46,22.3301-3.62,44.63-4.71,66.99c11.35,1.04,22.74,1.7101,34.13,2.15   c-1.44-23.4-3.63-46.74-5.3-70.12c-4.11-51.72-7.82-103.48-12.2-155.1699C291.29,1690.14,291.03,1691.51,290.88,1692.92z"/>
	<path fill="#B3B3B3" stroke="#B3B3B3" stroke-width="0.2" d="M703.41,1341.26c3.3-0.67,6.61,0.84,9.85,1.4299   c5.56,1.3601,11.15,2.6101,16.77,3.76c-2.45,6.4401-6.0601,12.3501-9,18.5701c-36.92,72.7-74.27,145.1899-111.1,217.95   c-9.65,17.9501-18.28,36.4501-27.96,54.38c-4.64-5.62-8.06-12.08-12.3-17.97c-42-63.65-84.29-127.12-126.31-190.76   c-17.8-26.92-35.86-53.67-53.41-80.75c14.48-2.3,29.09-3.87,43.65-5.63c46.39,84.0601,92.6,168.23,138.85,252.38   c1.93,3.65,3.87,7.3199,6.29,10.7c4.5-7.96,7.79-16.5099,11.91-24.6499c33.94-72.37,68.02-144.67,102.0099-217.01   C696.38,1356.26,699.31,1348.45,703.41,1341.26z"/>
	<path fill="#FFFFFF" stroke="#FFFFFF" stroke-width="0.2" d="M733.5,1348.21c8.62,0.4301,17.06,2.4301,25.59,3.67   c46.89,7.92,93.6,17.41,139.24,30.87c23.91,7.38,47.9,15.52,69.49,28.42c9.6,6.0199,19.55,13.1599,24.03,23.99   c17.39,43.4399,28.67,89.09,36.85,135.09c8.6801,48.9,13.8,98.38,16.8601,147.9301c3.1599,51.1899,4.09,102.5,3.0299,153.7699   c-0.9199,13.62-0.2999,27.3-1.6799,40.89c-29.97-0.1699-59.9401-0.2-89.91-0.22c-21.73,0.1801-43.44-0.54-65.16-0.65   c-2.4301-23.3099-4-46.7-6.06-70.03c-4.69-56-9.35-112-14.03-168c-0.49-5.4099-0.72-10.84-1.53-16.21   c-0.83,0.0701-2.5,0.21-3.33,0.28c-4.22,48.61-7.78,97.28-11.75,145.91c-2.75,35.98-5.89,71.9299-8.43,107.9199   c-49.9,0.25-99.81-0.35-149.71-0.23c-16-0.12-32.01,0.24-47.99-0.45c-50.01-0.24-100.03-0.2001-150.04-0.4601   c-29.98-0.6799-59.98-0.1499-89.97-0.4299c-32.23-0.35-64.47-0.0701-96.69-0.46c-3.11-46.3201-7.11-92.5801-10.57-138.88   c-2.26-29.67-4.64-59.3401-6.9-89.02c-0.65-6.9301-0.85-13.89-1.82-20.77c-0.79-0.02-2.37-0.05-3.16-0.0601   c-1.39,9.9701-1.55,20.0701-2.48,30.0901c-4.15,56.2799-8.3,112.5699-12.44,168.86c-1.37,16.5699-2.21,33.1899-3.86,49.73   c-38.7-0.02-77.41-0.17-116.12-0.2c-18.25-0.79-36.51-0.3601-54.77-0.6001c-4.76-49.96-6.55-100.1899-5.68-150.36   c1.81-108.0599,14.29-216.14,39.87-321.22c1.28-5.49,2.26-11.45,6.35-15.65c10.1-11.12,24.16-17.41,37.71-23.26   c36.5-14.76,75.08-23.38,113.49-31.53c30.2-6.1399,60.61-11.24,91.08-15.8799c1.99-0.27,4.43-0.8601,5.49,1.3999   c63.38,95.64,126.77,191.28,190.12,286.9501c1.16,1.72,2.37,3.4,3.61,5.1c4.3-7.02,7.53-14.62,11.42-21.85   c36.5099-71.53,73-143.0701,109.5099-214.6C713.23,1388.09,723.68,1368.3,733.5,1348.21z"/>
	<path fill="#B3B3B3" stroke="#B3B3B3" stroke-width="0.2" d="M868.02,1686.95c0.15-1.1,0.33-2.1699,0.57-3.21   c2.65,22.42,3.85,44.99,6.0099,67.47c4.42,54.28,9.16,108.55,13.4901,162.8401c-12.66-0.3501-25.32-1.1101-37.9301-2.24   C856.2,1836.86,862.12,1761.9,868.02,1686.95z"/>
	<path fill="#B3B3B3" stroke="#B3B3B3" stroke-width="0.2" d="M290.88,1692.92c0.15-1.41,0.41-2.78,0.7-4.12   c4.38,51.6899,8.09,103.45,12.2,155.1699c1.67,23.38,3.86,46.72,5.3,70.12c-11.39-0.4399-22.78-1.11-34.13-2.15   c1.09-22.36,3.25-44.6599,4.71-66.99C283.42,1794.27,287.1,1743.59,290.88,1692.92z"/>
</g>
</svg>