<svg
   xmlns:dc="http://purl.org/dc/elements/1.1/"
   xmlns:cc="http://creativecommons.org/ns#"
   xmlns:rdf="http://www.w3.org/1999/02/22-rdf-syntax-ns#"
   xmlns:svg="http://www.w3.org/2000/svg"
   xmlns="http://www.w3.org/2000/svg"
   xmlns:sodipodi="http://sodipodi.sourceforge.net/DTD/sodipodi-0.dtd"
   xmlns:inkscape="http://www.inkscape.org/namespaces/inkscape"
   id="svg3455"
   sodipodi:docname="onlinedoctor.svg"
   inkscape:export-filename="/Volumes/Daten/DATA_Private/DL/computer.png"
   viewBox="0 0 680.28252 740.56973"
   inkscape:export-xdpi="293.6264"
   version="1.0"
   inkscape:export-ydpi="293.6264"
   inkscape:version="0.92.1 r15371"
   width="725.6347"
   height="789.94104">
  <defs
     id="defs4504">
    <filter
       inkscape:collect="always"
       style="color-interpolation-filters:sRGB"
       id="filter4721"
       x="-0.10921601"
       width="1.2184319"
       y="-0.13314693"
       height="1.2662938">
      <feGaussianBlur
         inkscape:collect="always"
         stdDeviation="18.18952"
         id="feGaussianBlur4723" />
    </filter>
  </defs>
  <sodipodi:namedview
     id="namedview19"
     bordercolor="#666666"
     inkscape:pageshadow="2"
     guidetolerance="10"
     pagecolor="#ffffff"
     gridtolerance="10"
     inkscape:window-maximized="1"
     inkscape:zoom="0.37549905"
     objecttolerance="10"
     borderopacity="1"
     inkscape:current-layer="svg3455"
     inkscape:cx="87.082791"
     inkscape:cy="468.82943"
     inkscape:window-y="-8"
     inkscape:snap-global="false"
     inkscape:window-x="-8"
     inkscape:window-width="1366"
     showgrid="false"
     inkscape:pageopacity="0"
     inkscape:window-height="706"
     showguides="true"
     fit-margin-top="0"
     fit-margin-left="0"
     fit-margin-right="0"
     fit-margin-bottom="0">
    <inkscape:grid
       id="grid3844"
       type="xygrid"
       originx="0.1885211"
       originy="519.07091"
       spacingx="1"
       spacingy="1" />
  </sodipodi:namedview>
  <g
     id="layer1"
     transform="matrix(3.6754148,0,0,3.3459064,-1067.8918,-1869.6388)"
     style="stroke:#000000;stroke-linecap:round;stroke-linejoin:round" />
  <metadata
     id="metadata4501">
    <rdf:RDF>
      <cc:Work>
        <dc:format>image/svg+xml</dc:format>
        <dc:type
           rdf:resource="http://purl.org/dc/dcmitype/StillImage" />
        <cc:license
           rdf:resource="http://creativecommons.org/publicdomain/zero/1.0/" />
        <dc:publisher>
          <cc:Agent
             rdf:about="http://openclipart.org/">
            <dc:title>Openclipart</dc:title>
          </cc:Agent>
        </dc:publisher>
        <dc:title></dc:title>
      </cc:Work>
      <cc:License
         rdf:about="http://creativecommons.org/publicdomain/zero/1.0/">
        <cc:permits
           rdf:resource="http://creativecommons.org/ns#Reproduction" />
        <cc:permits
           rdf:resource="http://creativecommons.org/ns#Distribution" />
        <cc:permits
           rdf:resource="http://creativecommons.org/ns#DerivativeWorks" />
      </cc:License>
    </rdf:RDF>
  </metadata>
  <g
     id="g4865">
    <path
       inkscape:connector-curvature="0"
       style="stroke:#605c5c;stroke-linecap:round;stroke-linejoin:round;fill:#cccccc;stroke-width:3;stroke-opacity:1"
       d="m 364.35,712.6 -20.3,19.35 c -2.64,3.88 0.48,8.58 5.67,8.23 l 67.58,-0.26 c 4.61,0.35 8.23,-5.19 5.28,-9.03 l -18.66,-18.03 -2.06,-13.36 -36.42,-1.07 z"
       id="path3328"
       transform="matrix(3.6754148,0,0,3.3459064,-1067.8918,-1869.6388)" />
    <path
       inkscape:connector-curvature="0"
       d="m 296.53,569.58 -0.37,127.4 c 2.27,7.54 5.88,9.65 10.9,9.57 l 154.79,-0.23 c 7.53,-0.06 9.6,-6.18 9.16,-12.62 l 0.69,-123.94 c -0.22,-7.82 -4.33,-8.84 -10.28,-9.33 l -153.76,0.15 c -7.06,0.35 -10.3,3.24 -11.13,9 z"
       style="stroke:#605c5c;stroke-linecap:round;stroke-linejoin:round;fill:#cccccc;fill-opacity:0.99219001;stroke-width:3;stroke-opacity:1"
       id="path3330"
       transform="matrix(3.6754148,0,0,3.3459064,-1067.8918,-1869.6388)" />
    <path
       inkscape:connector-curvature="0"
       style="stroke:#666666;stroke-linecap:round;stroke-linejoin:round;fill:#999999;fill-opacity:0.99219001;stroke-width:2"
       d="m 300.76,570.32 -0.49,98.03 c 0.08,3.39 1.74,6.7 5.4,7.09 l 153.76,0.26 c 5.58,0.63 7.95,-1.69 8.12,-6.35 l 0.11,-97.47 c 0.62,-5.66 -3.99,-7.76 -8.94,-7.35 l -149.96,0.36 c -5.12,-0.24 -7.73,1.68 -8,5.43 z"
       id="path3332"
       transform="matrix(3.6754148,0,0,3.3459064,-1067.8918,-1869.6388)" />
    <path
       d="m 391.55,691.64 a 7.8101,7.9843 0 1 1 -15.619,0 7.8101,7.9843 0 1 1 15.619,0 z"
       inkscape:connector-curvature="0"
       style="stroke:#716d6d;stroke-linecap:round;stroke-linejoin:round;fill:#999999;fill-opacity:0.99219001;stroke-width:2;stroke-opacity:1"
       id="path3338"
       transform="matrix(3.6754148,0,0,3.3459064,-1067.8918,-1869.6388)" />
    <path
       style="stroke:#000000;stroke-linecap:round;stroke-linejoin:round;fill:#ffffff;fill-opacity:0.99219001"
       inkscape:connector-curvature="0"
       d="m 307.59,571.28 -0.25,96.47 h 152.78 v -96.22 z"
       id="path3987"
       transform="matrix(3.6754148,0,0,3.3459064,-1067.8918,-1869.6388)" />
    <path
       d="m 345.71,730.16 c -0.31166,3.62 2.0453,4.1 4.9185,4.54 l 64.447,-0.76 c 3.8472,-0.15 7.0515,-1.19 6.8859,-4.29"
       inkscape:connector-curvature="0"
       style="stroke:#666666;stroke-linecap:round;stroke-linejoin:round;fill:none;stroke-width:0.98689002"
       id="path3989"
       transform="matrix(3.6754148,0,0,3.3459064,-1067.8918,-1869.6388)" />
    <path
       inkscape:connector-curvature="0"
       style="stroke:#605c5c;stroke-linecap:round;stroke-linejoin:round;fill:#cccccc;stroke-width:2;stroke-opacity:1"
       d="m 307.14,750.22 -15.59,23.57 0.28,3.57 c 0.56,1.43 1.43,1.47 2.38,1.76 l 177.85,-0.08 c 2.24,-0.34 1.98,-0.86 2.34,-2.2 l 0.24,-3.76 c -4.15,-7.66 -8.64,-16.36 -12.47,-22.97 -0.41,-0.99 -1.29,-1.51 -2.17,-2.03 l -149.82,0.7 c -1.65,-0.16 -2.31,0.68 -3.04,1.44 z"
       id="path3991"
       transform="matrix(3.6754148,0,0,3.3459064,-1067.8918,-1869.6388)" />
    <path
       inkscape:connector-curvature="0"
       style="stroke:#666666;stroke-linecap:round;stroke-linejoin:round;fill:none"
       d="m 292.14,773.43 c 0.96,1.06 1.64,2.68 3.22,2.5 l 175.35,-0.35 c 2.63,0.33 3.2,-1.39 2.92,-2.78"
       id="path3993"
       transform="matrix(3.6754148,0,0,3.3459064,-1067.8918,-1869.6388)" />
    <path
       inkscape:connector-curvature="0"
       style="stroke:#666666;stroke-linecap:round;stroke-linejoin:round;fill:#999999;stroke-width:2"
       d="m 312.86,753.79 -12.15,17.86 108.93,-0.36 -1.78,-18.21 z"
       id="path3995"
       transform="matrix(3.6754148,0,0,3.3459064,-1067.8918,-1869.6388)" />
    <path
       d="m 412.14,753.12 1.43,8.529 h 17.14 l -2.14,-8.57 z"
       inkscape:connector-curvature="0"
       style="stroke:#666666;stroke-linecap:round;stroke-linejoin:round;fill:#999999;stroke-width:2"
       sodipodi:nodetypes="ccccc"
       id="path3997"
       transform="matrix(3.6754148,0,0,3.3459064,-1067.8918,-1869.6388)" />
    <path
       inkscape:connector-curvature="0"
       style="stroke:#666666;stroke-linecap:round;stroke-linejoin:round;fill:#999999;stroke-width:2"
       d="m 433.93,753.08 5.36,17.85 h 26.78 l -7.86,-17.85 z"
       id="path3999"
       transform="matrix(3.6754148,0,0,3.3459064,-1067.8918,-1869.6388)" />
    <path
       d="m 414.54,764.58 1.07,6.1021 17.5,0.17568 -1.79,-6.1238 -16.78,-0.15405 z"
       inkscape:connector-curvature="0"
       style="stroke:#666666;stroke-linecap:round;stroke-linejoin:round;fill:#999999;stroke-width:2"
       id="path4001"
       transform="matrix(3.6754148,0,0,3.3459064,-1067.8918,-1869.6388)" />
    <path
       d="M 70.751724,203.75589 V 51.446876 h 272.068906 272.0689 v 152.309014 152.309 H 342.82063 70.751724 Z"
       inkscape:connector-curvature="0"
       style="fill:#333333;stroke:#333333;stroke-width:27.20394325;stroke-linejoin:round"
       id="path2998" />
    <path
       inkscape:connector-curvature="0"
       id="path4687"
       d="m 175.81746,358.94758 c -16.1106,-33.05479 -36.49588,-65.22716 -41.8351,-102.28364 -12.06606,-18.78345 -2.39402,-40.70937 7.24233,-58.06083 11.18119,-16.14247 3.37503,-37.0571 13.78373,-53.19756 12.74639,-20.17039 36.44057,-30.44283 48.46879,-51.210626 22.65851,-18.137422 48.15233,-42.330805 79.80781,-35.737562 15.32258,6.993003 16.5418,-27.256055 31.57986,-9.768634 37.92731,-5.258964 77.07459,6.080667 107.82003,28.504398 21.67149,-9.050492 32.42429,9.760096 40.24766,26.050204 17.04816,20.36009 50.60213,26.09384 57.68997,54.42467 3.89829,33.95497 -11.95894,69.49843 2.97841,102.27476 11.98923,28.41211 -0.96232,64.73907 -29.25403,77.78568 -10.56943,15.77385 -24.0583,36.11007 -45.78331,33.58157 -36.45292,-6.18967 -73.74241,-6.78777 -110.68399,-7.90716 -45.71265,7.76335 -92.26363,6.52127 -138.43806,5.85459 -4.05002,-2.25258 -42.69525,-2.15314 -23.6241,-10.30986 z"
       style="opacity:0.219;fill:#55e529;fill-opacity:1;stroke:none;stroke-width:0.9375px;stroke-linecap:butt;stroke-linejoin:miter;stroke-opacity:1;filter:url(#filter4721)" />
    <g
       id="g12"
       transform="matrix(0.24866975,0,0,-0.20667855,174.96449,365.7971)">
      <path
         d="m 1076.26,7 c 0,0 -11.79,213.832 -18.81,294.461 -8.99,103.34 -32.72,113.668 -67.716,137.5 -59.832,40.73 -204.519,82.312 -204.519,82.312 H 546.418 c 0,0 -131.605,-21.71 -191.43,-62.445 L 257.59,371.84 226.848,521.332 159.016,516.809 103.73,479.895 82.4219,458.828 c 0,0 42.9301,-245.547 53.5231,-263.238 12.09,-20.199 22.602,-43.762 59.934,-40.918 46.855,3.566 178.723,86.656 178.723,86.656 L 397.48,7 h 678.78"
         style="fill:#ffffff;fill-opacity:1;fill-rule:nonzero;stroke:none"
         id="path14"
         inkscape:connector-curvature="0" />
      <path
         d="M 691.426,112.031 C 564.688,118.871 444.988,145.34 373.848,196.961 375.82,196.32 401.648,7 401.648,7 h 672.532 c 0,0 -6.99,151.969 -12.85,228.199 -81.096,-72.5 -215.158,-131.508 -369.904,-123.168"
         style="fill:#e0e6e8;fill-opacity:1;fill-rule:nonzero;stroke:none"
         id="path16"
         inkscape:connector-curvature="0" />
      <path
         d="m 722.488,590.629 c 0,0 -0.586,-38.43 12.043,-54.375 L 667.91,458 597.109,536.254 c 12.625,15.945 12.039,54.375 12.039,54.375 h 113.34"
         style="fill:#fcd0b4;fill-opacity:1;fill-rule:nonzero;stroke:none"
         id="path18"
         inkscape:connector-curvature="0" />
      <path
         d="m 614.805,578.266 h 104.394 l 6.836,-31.856 c 0,0 -55.976,-44.875 -131.308,-28.34 l 20.078,60.196"
         style="fill:#e59686;fill-opacity:1;fill-rule:nonzero;stroke:none"
         id="path20"
         inkscape:connector-curvature="0" />
      <path
         d="M 558.32,442.41 665.156,466.328 728.73,453 773.965,442.41 668.32,102.172 558.32,442.41"
         style="fill:#ffffff;fill-opacity:1;fill-rule:nonzero;stroke:none"
         id="path22"
         inkscape:connector-curvature="0" />
      <path
         d="m 630.605,234.879 21.329,149.293 -35.411,72.348 50.957,9.808 48.211,-9.808 -35.398,-72.348 25.937,-154.922 -38.75,-111.871 -36.875,117.5"
         style="fill:#5784cc;fill-opacity:1;fill-rule:nonzero;stroke:none"
         id="path24"
         inkscape:connector-curvature="0" />
      <path
         d="m 629.98,233 21.954,151.172 -35.411,72.348 50.957,9.808 48.211,-9.808 -35.398,-72.348 24.062,-149.922"
         style="fill:none;stroke:#24487a;stroke-width:7.5;stroke-linecap:round;stroke-linejoin:round;stroke-miterlimit:10;stroke-dasharray:none;stroke-opacity:1"
         id="path26"
         inkscape:connector-curvature="0" />
      <path
         d="m 651.934,384.172 c 0,0 11.132,11.508 28.359,0"
         style="fill:none;stroke:#24487a;stroke-width:7.5;stroke-linecap:round;stroke-linejoin:round;stroke-miterlimit:10;stroke-dasharray:none;stroke-opacity:1"
         id="path28"
         inkscape:connector-curvature="0" />
      <path
         d="m 817.852,511.262 79.675,-58.922 -71.66,-26.391 66.43,-57.308 L 643.32,28.6289"
         style="fill:none;stroke:#656263;stroke-width:12;stroke-linecap:round;stroke-linejoin:round;stroke-miterlimit:10;stroke-dasharray:none;stroke-opacity:1"
         id="path30"
         inkscape:connector-curvature="0" />
      <path
         d="M 510.898,514.406 433.008,452.34 504.668,425.949 438.242,368.641 656.66,86.9609"
         style="fill:none;stroke:#656263;stroke-width:12;stroke-linecap:round;stroke-linejoin:round;stroke-miterlimit:10;stroke-dasharray:none;stroke-opacity:1"
         id="path32"
         inkscape:connector-curvature="0" />
      <path
         d="m 997.832,265.469 c 0,0 -26.926,-68.797 -50.254,-103.797"
         style="fill:none;stroke:#656263;stroke-width:10;stroke-linecap:round;stroke-linejoin:round;stroke-miterlimit:10;stroke-dasharray:none;stroke-opacity:1"
         id="path34"
         inkscape:connector-curvature="0" />
      <path
         d="M 804.641,248.93 H 914.617 V 64.6719 H 757.48 V 184.52"
         style="fill:none;stroke:#656263;stroke-width:10;stroke-linecap:round;stroke-linejoin:round;stroke-miterlimit:10;stroke-dasharray:none;stroke-opacity:1"
         id="path36"
         inkscape:connector-curvature="0" />
      <path
         d="m 609.148,590.629 c 0,0 0.586,-38.43 -12.039,-54.375"
         style="fill:none;stroke:#231f20;stroke-width:14;stroke-linecap:round;stroke-linejoin:round;stroke-miterlimit:10;stroke-dasharray:none;stroke-opacity:1"
         id="path38"
         inkscape:connector-curvature="0" />
      <path
         d="m 567.91,528.832 c 0,0 -152.551,-34.609 -208.933,-70.832 C 332.512,440.988 257.59,364.25 257.59,364.25"
         style="fill:none;stroke:#231f20;stroke-width:14;stroke-linecap:round;stroke-linejoin:round;stroke-miterlimit:10;stroke-dasharray:none;stroke-opacity:1"
         id="path40"
         inkscape:connector-curvature="0" />
      <path
         d="m 665.156,462.379 c -54.343,51.559 -69.355,93.121 -62.019,113.953 0,0 -19.375,-11.25 -33.125,-42.707 -28.594,-65.406 2.781,-122.934 5.808,-140.805 0,0 57.942,70.891 89.336,69.559"
         style="fill:#ffffff;fill-opacity:1;fill-rule:nonzero;stroke:none"
         id="path42"
         inkscape:connector-curvature="0" />
      <path
         d="m 665.156,462.379 c -54.343,51.559 -69.355,93.121 -62.019,113.953 0,0 -19.375,-11.25 -33.125,-42.707 -28.594,-65.406 2.781,-122.934 5.808,-140.805 0,0 57.942,70.891 89.336,69.559 z"
         style="fill:none;stroke:#231f20;stroke-width:10;stroke-linecap:round;stroke-linejoin:round;stroke-miterlimit:10;stroke-dasharray:none;stroke-opacity:1"
         id="path44"
         inkscape:connector-curvature="0" />
      <path
         d="m 603.137,576.332 c 0,0 -19.375,-11.25 -33.125,-42.707 -28.594,-65.406 2.781,-122.934 5.808,-140.805 l 91.66,-275.441"
         style="fill:none;stroke:#231f20;stroke-width:12;stroke-linecap:round;stroke-linejoin:round;stroke-miterlimit:10;stroke-dasharray:none;stroke-opacity:1"
         id="path46"
         inkscape:connector-curvature="0" />
      <path
         d="m 763.73,528.832 c 0,0 166.172,-49.141 226.004,-89.871 34.996,-23.832 58.726,-34.16 67.716,-137.5 C 1064.47,220.832 1076.26,7 1076.26,7"
         style="fill:none;stroke:#231f20;stroke-width:14;stroke-linecap:round;stroke-linejoin:round;stroke-miterlimit:10;stroke-dasharray:none;stroke-opacity:1"
         id="path48"
         inkscape:connector-curvature="0" />
      <path
         d="M 366.238,313.129 C 368.738,301.461 397.488,7 397.488,7"
         style="fill:none;stroke:#231f20;stroke-width:14;stroke-linecap:round;stroke-linejoin:round;stroke-miterlimit:10;stroke-dasharray:none;stroke-opacity:1"
         id="path50"
         inkscape:connector-curvature="0" />
      <path
         d="M 965.41,313.129 C 962.91,301.461 928.73,7 928.73,7"
         style="fill:none;stroke:#231f20;stroke-width:14;stroke-linecap:round;stroke-linejoin:round;stroke-miterlimit:10;stroke-dasharray:none;stroke-opacity:1"
         id="path52"
         inkscape:connector-curvature="0" />
      <path
         d="m 666.484,462.379 c 54.344,51.559 69.356,93.121 62.024,113.953 0,0 19.375,-11.25 33.125,-42.707 28.594,-65.406 -2.785,-122.934 -5.813,-140.805 0,0 -57.937,70.891 -89.336,69.559"
         style="fill:#ffffff;fill-opacity:1;fill-rule:nonzero;stroke:none"
         id="path54"
         inkscape:connector-curvature="0" />
      <path
         d="m 666.484,462.379 c 54.344,51.559 69.356,93.121 62.024,113.953 0,0 19.375,-11.25 33.125,-42.707 28.594,-65.406 -2.785,-122.934 -5.813,-140.805 0,0 -57.937,70.891 -89.336,69.559 z"
         style="fill:none;stroke:#231f20;stroke-width:10;stroke-linecap:round;stroke-linejoin:round;stroke-miterlimit:10;stroke-dasharray:none;stroke-opacity:1"
         id="path56"
         inkscape:connector-curvature="0" />
      <path
         d="m 728.508,576.332 c 0,0 19.375,-11.25 33.125,-42.707 28.594,-65.406 0.672,-119.605 -5.813,-140.805 L 638.867,21.0195"
         style="fill:none;stroke:#231f20;stroke-width:12;stroke-linecap:round;stroke-linejoin:round;stroke-miterlimit:10;stroke-dasharray:none;stroke-opacity:1"
         id="path58"
         inkscape:connector-curvature="0" />
      <path
         d="m 701.797,34.5195 c 0,-7.4609 -6.055,-13.5 -13.504,-13.5 -7.453,0 -13.508,6.0391 -13.508,13.5 0,7.461 6.055,13.5 13.508,13.5 7.449,0 13.504,-6.039 13.504,-13.5"
         style="fill:#e0e6e8;fill-opacity:1;fill-rule:nonzero;stroke:none"
         id="path60"
         inkscape:connector-curvature="0" />
      <path
         d="m 701.797,34.5195 c 0,-7.4609 -6.055,-13.5 -13.504,-13.5 -7.453,0 -13.508,6.0391 -13.508,13.5 0,7.461 6.055,13.5 13.508,13.5 7.449,0 13.504,-6.039 13.504,-13.5 z"
         style="fill:none;stroke:#231f20;stroke-width:10;stroke-linecap:butt;stroke-linejoin:miter;stroke-miterlimit:10;stroke-dasharray:none;stroke-opacity:1"
         id="path62"
         inkscape:connector-curvature="0" />
      <path
         d="m 207.93,521.332 c 22.09,7.422 23.933,-7.559 23.933,-7.559 0,0 37.016,-223.914 36.426,-221.203"
         style="fill:none;stroke:#231f20;stroke-width:14;stroke-linecap:round;stroke-linejoin:round;stroke-miterlimit:10;stroke-dasharray:none;stroke-opacity:1"
         id="path64"
         inkscape:connector-curvature="0" />
      <path
         d="m 114.031,485.707 c 0,0 -36.113,-16.887 -33.6013,-37.719 -0.2734,-2.129 43.2693,-218.918 52.6563,-245.16 18.215,-50.918 50.586,-53.726 80.293,-44.519 63.816,19.793 160.5,81.402 160.5,81.402"
         style="fill:none;stroke:#231f20;stroke-width:14;stroke-linecap:round;stroke-linejoin:round;stroke-miterlimit:10;stroke-dasharray:none;stroke-opacity:1"
         id="path66"
         inkscape:connector-curvature="0" />
      <path
         d="m 115.305,436.859 -7.856,76.602 c 0,0 -58.2381,19.766 -69.5896,97.324 0,0 -29.47268,42.227 -30.78909,59.422 -1.47656,19.082 20.90629,35.293 40.17579,29.551 0,0 12.1172,36.027 45.1055,31.601 0,0 16.0864,29.524 48.4374,17.707 0,0 -6.453,103.719 -6.094,137.039 0.364,33.321 38.594,32.559 43.203,6.848 3.403,-18.976 33.469,-217.207 33.469,-217.207 l 0.363,-3.105 c 17.879,-10.422 25.333,-21.926 20.133,-54.211 -5.117,-31.649 -28.258,-70.731 -28.258,-70.731 l 5,-72.121 -49.589,-27.879 -43.711,-10.84"
         style="fill:#fcd0b4;fill-opacity:1;fill-rule:nonzero;stroke:none"
         id="path68"
         inkscape:connector-curvature="0" />
      <path
         d="m 44.3867,604.789 c 0,0 15.9453,-15.879 30.2696,-10.91 14.3164,4.973 18.6171,19.133 18.6171,19.133 0,0 16.1136,-2.922 25.0156,3.73 8.906,6.66 21.457,23.524 21.457,23.524 l 15.32,-12.43 c 0,0 -33.32,-35.781 -33.804,-52.414 0,0 -61.4964,-0.664 -69.0432,-2.176 -7.5625,-1.535 -7.8321,31.543 -7.8321,31.543"
         style="fill:#da907b;fill-opacity:1;fill-rule:nonzero;stroke:none"
         id="path70"
         inkscape:connector-curvature="0" />
      <path
         d="m 115.305,436.859 -7.856,76.602 c 0,0 -58.2381,19.766 -69.5896,97.324 0,0 -29.47268,42.227 -30.78909,59.422 -1.47656,19.082 20.90629,35.293 40.17579,29.551 0,0 12.1172,36.027 45.1055,31.601 0,0 16.0864,29.524 48.4374,17.707 0,0 -6.453,103.719 -6.094,137.039 0.364,33.321 38.594,32.559 43.203,6.848 3.403,-18.976 33.469,-217.207 33.469,-217.207 l 0.363,-3.105 c 17.879,-10.422 25.333,-21.926 20.133,-54.211 -5.117,-31.649 -28.258,-70.731 -28.258,-70.731 l 5,-72.121"
         style="fill:none;stroke:#231f20;stroke-width:14;stroke-linecap:round;stroke-linejoin:round;stroke-miterlimit:10;stroke-dasharray:none;stroke-opacity:1"
         id="path72"
         inkscape:connector-curvature="0" />
      <path
         d="m 211.73,672.641 c -34.738,20.234 -87.265,27.148 -92.66,7.226 -5.386,-19.922 29.844,-48.859 52.09,-55.676"
         style="fill:none;stroke:#231f20;stroke-width:12;stroke-linecap:round;stroke-linejoin:round;stroke-miterlimit:10;stroke-dasharray:none;stroke-opacity:1"
         id="path74"
         inkscape:connector-curvature="0" />
      <path
         d="m 154.941,629.281 c 0,0 -44.836,-40.695 -33.796,-78.066"
         style="fill:none;stroke:#231f20;stroke-width:12;stroke-linecap:round;stroke-linejoin:round;stroke-miterlimit:10;stroke-dasharray:none;stroke-opacity:1"
         id="path76"
         inkscape:connector-curvature="0" />
      <path
         d="m 140.789,749.066 17.07,-56.211"
         style="fill:none;stroke:#231f20;stroke-width:12;stroke-linecap:round;stroke-linejoin:round;stroke-miterlimit:10;stroke-dasharray:none;stroke-opacity:1"
         id="path78"
         inkscape:connector-curvature="0" />
      <path
         d="M 92.3828,731.75 118.43,679.73"
         style="fill:none;stroke:#231f20;stroke-width:12;stroke-linecap:round;stroke-linejoin:round;stroke-miterlimit:10;stroke-dasharray:none;stroke-opacity:1"
         id="path80"
         inkscape:connector-curvature="0" />
      <path
         d="m 37.2773,611.242 c 0,0 17.0274,-16.394 28.5547,-17.664 15.9375,-1.758 27.3243,6.336 27.3828,21.563 0,0 26.7582,-9.68 44.1482,20.554"
         style="fill:none;stroke:#231f20;stroke-width:12;stroke-linecap:round;stroke-linejoin:round;stroke-miterlimit:10;stroke-dasharray:none;stroke-opacity:1"
         id="path82"
         inkscape:connector-curvature="0" />
      <path
         d="m 47.2461,699.758 c 0,0 26.2969,-68.953 48.8984,-84.031"
         style="fill:none;stroke:#231f20;stroke-width:12;stroke-linecap:round;stroke-linejoin:round;stroke-miterlimit:10;stroke-dasharray:none;stroke-opacity:1"
         id="path84"
         inkscape:connector-curvature="0" />
      <path
         d="m 80.4297,447.988 c 0,0 6.8867,-13.75 42.5193,-10.367 44.461,4.219 105.852,43.66 108.914,67.5"
         style="fill:none;stroke:#231f20;stroke-width:14;stroke-linecap:round;stroke-linejoin:round;stroke-miterlimit:10;stroke-dasharray:none;stroke-opacity:1"
         id="path86"
         inkscape:connector-curvature="0" />
      <path
         d="m 519.316,78.3984 c 2.188,-8.1992 -4.492,-17.1796 -14.961,-20.0586 -10.449,-2.8593 -20.703,1.4805 -22.902,9.6915 -2.195,8.1875 4.504,17.1601 14.953,20.0195 10.449,2.8594 20.711,-1.4805 22.91,-9.6524"
         style="fill:#403c3d;fill-opacity:1;fill-rule:nonzero;stroke:none"
         id="path88"
         inkscape:connector-curvature="0" />
      <path
         d="m 519.316,78.3984 c 2.188,-8.1992 -4.492,-17.1796 -14.961,-20.0586 -10.449,-2.8593 -20.703,1.4805 -22.902,9.6915 -2.195,8.1875 4.504,17.1601 14.953,20.0195 10.449,2.8594 20.711,-1.4805 22.91,-9.6524 z"
         style="fill:none;stroke:#231f20;stroke-width:7.5;stroke-linecap:butt;stroke-linejoin:miter;stroke-miterlimit:10;stroke-dasharray:none;stroke-opacity:1"
         id="path90"
         inkscape:connector-curvature="0" />
      <path
         d="m 558.66,88.9297 c 2.199,-8.2109 12.453,-12.5078 22.903,-9.6484 10.449,2.8671 17.148,11.8085 14.941,20.0195 -2.188,8.1872 -12.441,12.5272 -22.899,9.6482 -10.441,-2.847 -17.14,-11.8279 -14.945,-20.0193"
         style="fill:#403c3d;fill-opacity:1;fill-rule:nonzero;stroke:none"
         id="path92"
         inkscape:connector-curvature="0" />
      <path
         d="m 558.66,88.9297 c 2.199,-8.2109 12.453,-12.5078 22.903,-9.6484 10.449,2.8671 17.148,11.8085 14.941,20.0195 -2.188,8.1872 -12.441,12.5272 -22.899,9.6482 -10.441,-2.847 -17.14,-11.8279 -14.945,-20.0193 z"
         style="fill:none;stroke:#231f20;stroke-width:7.5;stroke-linecap:butt;stroke-linejoin:miter;stroke-miterlimit:10;stroke-dasharray:none;stroke-opacity:1"
         id="path94"
         inkscape:connector-curvature="0" />
      <path
         d="M 881.438,342.73 C 869.98,502.445 766.074,625.617 649.785,617.27 544.316,609.719 464.414,496.488 459.016,356.309 403.953,336.121 376.008,260.961 396.594,184.09 c 5.41,-20.141 36.609,-101.5392 69.89,-120.6408 5.489,-3.1289 10.911,-4.6172 16.204,-4.4375 1.953,0.0586 3.875,0.3594 5.789,0.8867 l -5.274,19.2813 c -1.777,-0.4609 -4.043,0.0508 -6.758,1.6289 -24.382,14 -54.531,86.0824 -60.539,108.4724 -18.57,69.348 6.145,136.68 55.09,150.09 18.32,5.02 38.067,1.891 57.109,-9.043 29.942,-17.156 54.317,-51.68 65.196,-92.328 10.039,-37.43 15.039,-124.512 -3.203,-129.52 l 5.273,-19.2886 c 47.883,13.1286 17.617,152.5976 17.246,153.9996 -12.226,45.668 -40.097,84.731 -74.558,104.5 -19.282,11.047 -39.368,15.547 -58.84,13.418 6.777,127.262 78.136,229 172.031,235.739 105.273,7.55 199.59,-107.098 210.234,-255.559 7.121,-99.379 -25.078,-193.18 -84.043,-244.7773 L 790.469,80.9102 C 854.16,136.66 889.016,236.988 881.438,342.73"
         style="fill:#7b7979;fill-opacity:1;fill-rule:nonzero;stroke:none"
         id="path96"
         inkscape:connector-curvature="0" />
      <path
         d="M 881.438,342.73 C 869.98,502.445 766.074,625.617 649.785,617.27 544.316,609.719 464.414,496.488 459.016,356.309 403.953,336.121 376.008,260.961 396.594,184.09 c 5.41,-20.141 36.609,-101.5392 69.89,-120.6408 5.489,-3.1289 10.911,-4.6172 16.204,-4.4375 1.953,0.0586 3.875,0.3594 5.789,0.8867 l -5.274,19.2813 c -1.777,-0.4609 -4.043,0.0508 -6.758,1.6289 -24.382,14 -54.531,86.0824 -60.539,108.4724 -18.57,69.348 6.145,136.68 55.09,150.09 18.32,5.02 38.067,1.891 57.109,-9.043 29.942,-17.156 54.317,-51.68 65.196,-92.328 10.039,-37.43 15.039,-124.512 -3.203,-129.52 l 5.273,-19.2886 c 47.883,13.1286 17.617,152.5976 17.246,153.9996 -12.226,45.668 -40.097,84.731 -74.558,104.5 -19.282,11.047 -39.368,15.547 -58.84,13.418 6.777,127.262 78.136,229 172.031,235.739 105.273,7.55 199.59,-107.098 210.234,-255.559 7.121,-99.379 -25.078,-193.18 -84.043,-244.7773 L 790.469,80.9102 C 854.16,136.66 889.016,236.988 881.438,342.73 Z"
         style="fill:none;stroke:#231f20;stroke-width:7.5;stroke-linecap:round;stroke-linejoin:round;stroke-miterlimit:10;stroke-dasharray:none;stroke-opacity:1"
         id="path98"
         inkscape:connector-curvature="0" />
      <path
         d="m 858.516,111.961 c 1.172,-33.7305 -25.223,-62.0196 -58.946,-63.1797 -33.742,-1.1719 -62.011,25.2304 -63.183,58.9567 -1.153,33.731 25.234,62 58.965,63.16 33.73,1.172 62.011,-25.207 63.164,-58.937"
         style="fill:#a7a5a6;fill-opacity:1;fill-rule:nonzero;stroke:none"
         id="path100"
         inkscape:connector-curvature="0" />
      <path
         d="m 858.516,111.961 c 1.172,-33.7305 -25.223,-62.0196 -58.946,-63.1797 -33.742,-1.1719 -62.011,25.2304 -63.183,58.9567 -1.153,33.731 25.234,62 58.965,63.16 33.73,1.172 62.011,-25.207 63.164,-58.937 z"
         style="fill:none;stroke:#231f20;stroke-width:10;stroke-linecap:butt;stroke-linejoin:miter;stroke-miterlimit:10;stroke-dasharray:none;stroke-opacity:1"
         id="path102"
         inkscape:connector-curvature="0" />
      <path
         d="m 838.848,111.281 c 0.781,-22.8591 -17.11,-42.0427 -39.961,-42.8201 -22.871,-0.789 -42.032,17.1094 -42.824,39.9611 -0.79,22.859 17.101,42.027 39.972,42.808 22.852,0.79 42.024,-17.101 42.813,-39.949"
         style="fill:#7b7979;fill-opacity:1;fill-rule:nonzero;stroke:none"
         id="path104"
         inkscape:connector-curvature="0" />
      <path
         d="m 838.848,111.281 c 0.781,-22.8591 -17.11,-42.0427 -39.961,-42.8201 -22.871,-0.789 -42.032,17.1094 -42.824,39.9611 -0.79,22.859 17.101,42.027 39.972,42.808 22.852,0.79 42.024,-17.101 42.813,-39.949 z"
         style="fill:none;stroke:#231f20;stroke-width:5;stroke-linecap:butt;stroke-linejoin:miter;stroke-miterlimit:10;stroke-dasharray:none;stroke-opacity:1"
         id="path106"
         inkscape:connector-curvature="0" />
      <path
         d="m 335.77,994.621 c 0,0 -61.922,242.829 72.011,338.379 0,0 20.742,45 115.149,98.41 121.281,68.6 289.101,40.43 314.824,-42.87 0,0 71.379,-11.65 118.828,-79.63 45.328,-64.92 64.918,-128.59 42.473,-312.344 l 0.32,-85.097 -648.359,-48.977 -15.246,132.129"
         style="fill:#291d16;fill-opacity:1;fill-rule:nonzero;stroke:none"
         id="path108"
         inkscape:connector-curvature="0" />
      <path
         d="m 407.781,1303.25 c 0,0 20.742,45 115.149,98.4 121.281,68.61 289.101,40.43 314.824,-42.87 0,0 71.379,-11.65 118.828,-79.63 30.742,-44.02 49.618,-87.52 51.598,-168.22 2.27,100.35 -17.282,148.83 -51.598,197.98 -47.449,67.98 -118.828,79.63 -118.828,79.63 -25.723,83.3 -193.543,111.47 -314.824,42.87 C 428.523,1378 407.781,1333 407.781,1333 c -74.468,-53.13 -88.355,-151.78 -86.043,-228.91 2.117,71.29 20.867,152.65 86.043,199.16"
         style="fill:#806a5d;fill-opacity:1;fill-rule:nonzero;stroke:none"
         id="path110"
         inkscape:connector-curvature="0" />
      <path
         d="m 999.055,966.809 0.203,-55.352 0.117,0.012 -0.215,56.277 c -0.039,-0.312 -0.066,-0.625 -0.105,-0.937"
         style="fill:#644a3f;fill-opacity:1;fill-rule:nonzero;stroke:none"
         id="path112"
         inkscape:connector-curvature="0" />
      <path
         d="m 960.957,963.461 c 0,0 60.353,48.389 83.023,-27.492 26.04,-87.176 -61.246,-182.215 -100.855,-189.649"
         style="fill:#fcd0b4;fill-opacity:1;fill-rule:nonzero;stroke:none"
         id="path114"
         inkscape:connector-curvature="0" />
      <path
         d="m 960.957,963.461 c 0,0 60.353,48.389 83.023,-27.492 26.04,-87.176 -61.246,-182.215 -100.855,-189.649"
         style="fill:none;stroke:#231f20;stroke-width:14;stroke-linecap:round;stroke-linejoin:round;stroke-miterlimit:10;stroke-dasharray:none;stroke-opacity:1"
         id="path116"
         inkscape:connector-curvature="0" />
      <path
         d="m 1000.68,851.586 c -12.41,-28.234 -35.922,-45.176 -52.528,-37.883 -16.609,7.297 -20.007,36.106 -7.586,64.336 12.422,28.215 35.938,45.168 52.539,37.863 16.605,-7.297 19.985,-36.105 7.575,-64.316"
         style="fill:#e59686;fill-opacity:1;fill-rule:nonzero;stroke:none"
         id="path118"
         inkscape:connector-curvature="0" />
      <path
         d="m 1017.83,937.121 c 0,0 -32.049,14.094 -56.873,-40.613"
         style="fill:none;stroke:#231f20;stroke-width:14;stroke-linecap:round;stroke-linejoin:round;stroke-miterlimit:10;stroke-dasharray:none;stroke-opacity:1"
         id="path120"
         inkscape:connector-curvature="0" />
      <path
         d="m 370.754,963.461 c 0,0 -60.356,48.389 -83.027,-27.492 -26.039,-87.176 61.25,-182.215 100.859,-189.649"
         style="fill:#fcd0b4;fill-opacity:1;fill-rule:nonzero;stroke:none"
         id="path122"
         inkscape:connector-curvature="0" />
      <path
         d="m 370.754,963.461 c 0,0 -60.356,48.389 -83.027,-27.492 -26.039,-87.176 61.25,-182.215 100.859,-189.649"
         style="fill:none;stroke:#231f20;stroke-width:14;stroke-linecap:round;stroke-linejoin:round;stroke-miterlimit:10;stroke-dasharray:none;stroke-opacity:1"
         id="path124"
         inkscape:connector-curvature="0" />
      <path
         d="m 320.957,853.215 c 12.41,-28.211 35.93,-45.176 52.527,-37.879 16.606,7.305 20,36.094 7.579,64.324 -12.403,28.215 -35.934,45.176 -52.528,37.863 -16.601,-7.296 -19.98,-36.074 -7.578,-64.308"
         style="fill:#e59686;fill-opacity:1;fill-rule:nonzero;stroke:none"
         id="path126"
         inkscape:connector-curvature="0" />
      <path
         d="m 313.867,937.121 c 0,0 32.063,14.094 56.887,-40.613"
         style="fill:none;stroke:#231f20;stroke-width:14;stroke-linecap:round;stroke-linejoin:round;stroke-miterlimit:10;stroke-dasharray:none;stroke-opacity:1"
         id="path128"
         inkscape:connector-curvature="0" />
      <path
         d="m 910.188,1242.68 c 74.871,-200.64 64.578,-469.114 -11.583,-570.95 -58.8,-78.621 -138.019,-123.679 -232.746,-123.679 -94.738,0 -173.957,45.058 -232.754,123.679 -79.929,106.868 -86.574,402.67 0.821,602.42 l 1.66,2.12 c 74.355,51.44 187.793,54.84 187.793,54.84 0,0 -70.547,-34.19 -60.371,-45.36 10.566,-11.6 78.164,-17.36 140.41,0.43 89.836,25.67 112.285,62.37 112.285,62.37 0,0 5.692,-75.75 97.383,-107.12"
         style="fill:#fcd0b4;fill-opacity:1;fill-rule:nonzero;stroke:none"
         id="path130"
         inkscape:connector-curvature="0" />
      <path
         d="m 910.188,1242.68 c 74.871,-200.64 64.578,-469.114 -11.583,-570.95 -58.8,-78.621 -138.019,-123.679 -232.746,-123.679 -94.738,0 -173.957,45.058 -232.754,123.679 -79.929,106.868 -86.574,402.67 0.821,602.42 l 1.66,2.12 c 74.355,51.44 187.793,54.84 187.793,54.84 0,0 -70.547,-34.19 -60.371,-45.36 10.566,-11.6 78.164,-17.36 140.41,0.43 89.836,25.67 112.285,62.37 112.285,62.37 0,0 5.692,-75.75 97.383,-107.12"
         style="fill:none;stroke:#231f20;stroke-width:14;stroke-linecap:round;stroke-linejoin:round;stroke-miterlimit:10;stroke-dasharray:none;stroke-opacity:1"
         id="path132"
         inkscape:connector-curvature="0" />
      <path
         d="M 372.258,978.801 H 436.34"
         style="fill:none;stroke:#231f20;stroke-width:14;stroke-linecap:round;stroke-linejoin:round;stroke-miterlimit:10;stroke-dasharray:none;stroke-opacity:1"
         id="path134"
         inkscape:connector-curvature="0" />
      <path
         d="m 487.168,911.477 c 0,-14.454 -23.086,-26.172 -51.57,-26.172 -28.481,0 -51.606,11.718 -51.606,26.172 0,14.453 23.125,26.144 51.606,26.144 28.484,0 51.57,-11.691 51.57,-26.144"
         style="fill:#f6807f;fill-opacity:1;fill-rule:nonzero;stroke:none"
         id="path136"
         inkscape:connector-curvature="0" />
      <path
         d="m 939.609,911.477 c 0,-14.454 -23.093,-26.172 -51.582,-26.172 -28.476,0 -51.589,11.718 -51.589,26.172 0,14.453 23.113,26.144 51.589,26.144 28.489,0 51.582,-11.691 51.582,-26.144"
         style="fill:#f6807f;fill-opacity:1;fill-rule:nonzero;stroke:none"
         id="path138"
         inkscape:connector-curvature="0" />
      <path
         d="m 583.574,984.738 c 0,-36.601 -23.379,-66.258 -52.207,-66.258 -28.828,0 -52.187,29.657 -52.187,66.258 0,36.602 23.359,66.272 52.187,66.272 28.828,0 52.207,-29.67 52.207,-66.272"
         style="fill:#ffffff;fill-opacity:1;fill-rule:nonzero;stroke:none"
         id="path140"
         inkscape:connector-curvature="0" />
      <path
         d="m 572.441,981.379 c 0,-19.695 -12.175,-35.703 -27.207,-35.703 -15.031,0 -27.226,16.008 -27.226,35.703 0,19.721 12.195,35.681 27.226,35.681 15.032,0 27.207,-15.96 27.207,-35.681"
         style="fill:#231f20;fill-opacity:1;fill-rule:nonzero;stroke:none"
         id="path142"
         inkscape:connector-curvature="0" />
      <path
         d="m 478.066,997.102 c 0,0 5.547,40.428 43.313,51.668 44.187,13.14 55.516,-31.46 55.516,-31.46 0,0 -23.008,17.11 -50.43,10.12 -25.84,-6.59 -48.399,-30.328 -48.399,-30.328"
         style="fill:#deedfa;fill-opacity:1;fill-rule:nonzero;stroke:none"
         id="path144"
         inkscape:connector-curvature="0" />
      <path
         d="m 576.895,1017.31 c 0,0 -11.329,44.6 -55.516,31.46 -37.766,-11.24 -43.313,-51.668 -43.313,-51.668"
         style="fill:none;stroke:#231f20;stroke-width:14;stroke-linecap:round;stroke-linejoin:round;stroke-miterlimit:10;stroke-dasharray:none;stroke-opacity:1"
         id="path146"
         inkscape:connector-curvature="0" />
      <path
         d="m 573.059,1000.38 c 0,-4.646 -3.735,-8.415 -8.332,-8.415 -4.598,0 -8.332,3.769 -8.332,8.415 0,4.64 3.734,8.41 8.332,8.41 4.597,0 8.332,-3.77 8.332,-8.41"
         style="fill:#ffffff;fill-opacity:1;fill-rule:nonzero;stroke:none"
         id="path148"
         inkscape:connector-curvature="0" />
      <path
         d="m 748.145,984.738 c 0,-36.601 23.359,-66.258 52.187,-66.258 28.84,0 52.195,29.657 52.195,66.258 0,36.602 -23.355,66.272 -52.195,66.272 -28.828,0 -52.187,-29.67 -52.187,-66.272"
         style="fill:#ffffff;fill-opacity:1;fill-rule:nonzero;stroke:none"
         id="path150"
         inkscape:connector-curvature="0" />
      <path
         d="m 759.258,981.379 c 0,-19.695 12.187,-35.703 27.207,-35.703 15.039,0 27.226,16.008 27.226,35.703 0,19.721 -12.187,35.681 -27.226,35.681 -15.02,0 -27.207,-15.96 -27.207,-35.681"
         style="fill:#231f20;fill-opacity:1;fill-rule:nonzero;stroke:none"
         id="path152"
         inkscape:connector-curvature="0" />
      <path
         d="m 853.645,997.102 c 0,0 -5.559,40.428 -43.313,51.668 -44.199,13.14 -55.527,-31.46 -55.527,-31.46 0,0 23.008,17.11 50.429,10.12 25.852,-6.59 48.411,-30.328 48.411,-30.328"
         style="fill:#deedfa;fill-opacity:1;fill-rule:nonzero;stroke:none"
         id="path154"
         inkscape:connector-curvature="0" />
      <path
         d="m 754.805,1017.31 c 0,0 11.328,44.6 55.527,31.46 37.754,-11.24 43.313,-51.668 43.313,-51.668"
         style="fill:none;stroke:#231f20;stroke-width:14;stroke-linecap:round;stroke-linejoin:round;stroke-miterlimit:10;stroke-dasharray:none;stroke-opacity:1"
         id="path156"
         inkscape:connector-curvature="0" />
      <path
         d="m 794.785,1000.38 c 0,-4.646 3.731,-8.415 8.34,-8.415 4.59,0 8.32,3.769 8.32,8.415 0,4.64 -3.73,8.41 -8.32,8.41 -4.609,0 -8.34,-3.77 -8.34,-8.41"
         style="fill:#ffffff;fill-opacity:1;fill-rule:nonzero;stroke:none"
         id="path158"
         inkscape:connector-curvature="0" />
      <path
         d="m 636.699,984.828 c 0,0 32.071,9.051 55.93,-3.449"
         style="fill:none;stroke:#231f20;stroke-width:14;stroke-linecap:round;stroke-linejoin:round;stroke-miterlimit:10;stroke-dasharray:none;stroke-opacity:1"
         id="path160"
         inkscape:connector-curvature="0" />
      <path
         d="m 334.148,984.691 c 0,0 -60.3,252.759 73.633,348.309 0,0 20.742,45 115.149,98.41 121.281,68.6 289.101,40.43 314.824,-42.87 0,0 71.379,-11.65 118.828,-79.63 45.328,-64.92 64.918,-146.02 42.473,-329.765"
         style="fill:none;stroke:#231f20;stroke-width:14;stroke-linecap:round;stroke-linejoin:round;stroke-miterlimit:10;stroke-dasharray:none;stroke-opacity:1"
         id="path162"
         inkscape:connector-curvature="0" />
      <path
         d="m 615.039,1120.4 c -4.297,10.01 -14.07,21.62 -27.266,30.56 -13.105,9.06 -29.628,15.55 -45.722,17.68 -16.094,2.28 -31.387,-0.01 -41.485,-3.41 -20.632,-6.64 -35.019,-20.8 -42.011,-31.96 -7.168,-11.36 -8.301,-19.83 -5.45,-21.68 6.282,-4.24 25.293,19.62 55.403,29.26 7.469,2.51 18.562,4.88 31.297,4.28 12.683,-0.5 26.777,-4.05 38.847,-9.81 12.129,-5.67 22.024,-13.44 27.911,-20.17 4.414,-5.24 10.527,-2.47 8.476,5.25"
         style="fill:#291d16;fill-opacity:1;fill-rule:nonzero;stroke:none"
         id="path164"
         inkscape:connector-curvature="0" />
      <path
         d="m 615.039,1120.4 c -4.297,10.01 -14.07,21.62 -27.266,30.56 -13.105,9.06 -29.628,15.55 -45.722,17.68 -16.094,2.28 -31.387,-0.01 -41.485,-3.41 -20.632,-6.64 -35.019,-20.8 -42.011,-31.96 -7.168,-11.36 -8.301,-19.83 -5.45,-21.68 6.282,-4.24 25.293,19.62 55.403,29.26 7.469,2.51 18.562,4.88 31.297,4.28 12.683,-0.5 26.777,-4.05 38.847,-9.81 12.129,-5.67 22.024,-13.44 27.911,-20.17 4.414,-5.24 10.527,-2.47 8.476,5.25 z"
         style="fill:none;stroke:#291d16;stroke-width:7.5;stroke-linecap:butt;stroke-linejoin:miter;stroke-miterlimit:10;stroke-dasharray:none;stroke-opacity:1"
         id="path166"
         inkscape:connector-curvature="0" />
      <path
         d="m 716.672,1120.4 c 4.297,10.01 14.07,21.62 27.254,30.56 13.105,9.06 29.629,15.55 45.722,17.68 16.106,2.28 31.387,-0.01 41.497,-3.41 20.632,-6.64 35.007,-20.8 42,-31.96 7.175,-11.36 8.3,-19.83 5.449,-21.68 -6.27,-4.24 -25.293,19.62 -55.391,29.26 -7.48,2.51 -18.562,4.88 -31.301,4.28 -12.683,-0.5 -26.765,-4.05 -38.843,-9.81 -12.141,-5.67 -22.024,-13.44 -27.914,-20.17 -4.422,-5.24 -10.536,-2.47 -8.473,5.25"
         style="fill:#291d16;fill-opacity:1;fill-rule:nonzero;stroke:none"
         id="path168"
         inkscape:connector-curvature="0" />
      <path
         d="m 716.672,1120.4 c 4.297,10.01 14.07,21.62 27.254,30.56 13.105,9.06 29.629,15.55 45.722,17.68 16.106,2.28 31.387,-0.01 41.497,-3.41 20.632,-6.64 35.007,-20.8 42,-31.96 7.175,-11.36 8.3,-19.83 5.449,-21.68 -6.27,-4.24 -25.293,19.62 -55.391,29.26 -7.48,2.51 -18.562,4.88 -31.301,4.28 -12.683,-0.5 -26.765,-4.05 -38.843,-9.81 -12.141,-5.67 -22.024,-13.44 -27.914,-20.17 -4.422,-5.24 -10.536,-2.47 -8.473,5.25 z"
         style="fill:none;stroke:#291d16;stroke-width:7.5;stroke-linecap:butt;stroke-linejoin:miter;stroke-miterlimit:10;stroke-dasharray:none;stroke-opacity:1"
         id="path170"
         inkscape:connector-curvature="0" />
      <path
         d="m 648.418,940.102 c 0,0 7.441,-28.215 2.48,-57.266"
         style="fill:none;stroke:#231f20;stroke-width:14;stroke-linecap:round;stroke-linejoin:round;stroke-miterlimit:10;stroke-dasharray:none;stroke-opacity:1"
         id="path172"
         inkscape:connector-curvature="0" />
      <path
         d="m 663.789,898.891 c 0,0 -29.961,-37.453 -30.715,-50.93 -0.75,-13.477 24.621,-35.945 24.621,-35.945"
         style="fill:none;stroke:#231f20;stroke-width:14;stroke-linecap:round;stroke-linejoin:round;stroke-miterlimit:10;stroke-dasharray:none;stroke-opacity:1"
         id="path174"
         inkscape:connector-curvature="0" />
      <path
         d="m 637.461,978.168 c 0,-55.539 -45.02,-100.547 -100.566,-100.547 -55.528,0 -100.555,45.008 -100.555,100.547 0,55.542 45.027,100.562 100.555,100.562 55.546,0 100.566,-45.02 100.566,-100.562 z"
         style="fill:none;stroke:#231f20;stroke-width:16;stroke-linecap:round;stroke-linejoin:round;stroke-miterlimit:10;stroke-dasharray:none;stroke-opacity:1"
         id="path176"
         inkscape:connector-curvature="0" />
      <path
         d="M 959.453,978.801 H 895.371"
         style="fill:none;stroke:#231f20;stroke-width:14;stroke-linecap:round;stroke-linejoin:round;stroke-miterlimit:10;stroke-dasharray:none;stroke-opacity:1"
         id="path178"
         inkscape:connector-curvature="0" />
      <path
         d="m 694.258,978.168 c 0,-55.539 45.019,-100.547 100.547,-100.547 55.547,0 100.566,45.008 100.566,100.547 0,55.542 -45.019,100.562 -100.566,100.562 -55.528,0 -100.547,-45.02 -100.547,-100.562 z"
         style="fill:none;stroke:#231f20;stroke-width:16;stroke-linecap:round;stroke-linejoin:round;stroke-miterlimit:10;stroke-dasharray:none;stroke-opacity:1"
         id="path180"
         inkscape:connector-curvature="0" />
      <path
         d="m 662.141,760.074 c 74.187,0 112.379,14.684 112.379,14.684 0.648,-34.863 -9.762,-173.68 -108.661,-173.68 -98.894,0 -109.316,138.817 -108.664,173.68 0,0 30.785,-14.684 104.946,-14.684"
         style="fill:#eb4b7c;fill-opacity:1;fill-rule:nonzero;stroke:none"
         id="path182"
         inkscape:connector-curvature="0" />
      <path
         d="m 667.141,735.707 c 38.062,0 73.047,-12.246 101.211,-30.344 5.32,26.203 6.375,57.606 6.168,69.395 0,0 -38.192,-14.684 -112.379,-14.684 -74.161,0 -104.946,14.684 -104.946,14.684 -0.23,-12.028 0.871,-44.063 6.465,-70.848 27.031,20.281 64.399,31.797 103.481,31.797"
         style="fill:#c2434f;fill-opacity:1;fill-rule:nonzero;stroke:none"
         id="path184"
         inkscape:connector-curvature="0" />
      <path
         d="m 662.141,760.074 c 74.187,0 112.379,14.684 112.379,14.684 0.648,-34.863 -9.762,-173.68 -108.661,-173.68 -98.894,0 -109.316,138.817 -108.664,173.68 0,0 30.785,-14.684 104.946,-14.684 z"
         style="fill:none;stroke:#231f20;stroke-width:12;stroke-linecap:round;stroke-linejoin:round;stroke-miterlimit:10;stroke-dasharray:none;stroke-opacity:1"
         id="path186"
         inkscape:connector-curvature="0" />
    </g>
    <path
       id="path4725"
       style="fill:none;stroke:#282828;stroke-width:8.74781227;stroke-linecap:round;stroke-linejoin:bevel;stroke-miterlimit:4;stroke-dasharray:none;stroke-opacity:1"
       inkscape:connector-curvature="0"
       d="M 64.798268,203.89193 V 44.102253 H 343.58423 622.37019 V 203.89193 363.6816 H 343.58423 64.798268 Z" />
  </g>
</svg>
